<?xml version="1.0" standalone="no"?>
<!DOCTYPE svg PUBLIC "-//W3C//DTD SVG 1.1//EN" "http://www.w3.org/Graphics/SVG/1.1/DTD/svg11.dtd" >
<svg xmlns="http://www.w3.org/2000/svg">
<metadata>Generated by IcoMoon</metadata>
<defs>
<font id="lato-heavy-webfont" horiz-adv-x="1024">
<font-face units-per-em="1024" ascent="960" descent="-64" />
<missing-glyph horiz-adv-x="1024" />
<glyph unicode="&#x20;" horiz-adv-x="256" d="" />
<glyph unicode="&#x21;" glyph-name="uni21" horiz-adv-x="293" d="M212.992 878.592v-292.864q0-46.592-4.864-92.16t-13.568-94.72h-95.232q-8.704 49.152-13.568 94.72t-4.864 92.16v292.864h132.096zM61.952 209.92q0 16.896 6.4 32t17.664 26.112 26.368 17.408 33.024 6.4q17.408 0 32.512-6.4t26.368-17.408 17.92-26.112 6.656-32q0-17.408-6.656-32.256t-17.92-25.856-26.368-17.152-32.512-6.144q-17.92 0-33.024 6.144t-26.368 17.152-17.664 25.856-6.4 32.256z" />
<glyph unicode="&#x22;" glyph-name="uni22" horiz-adv-x="415" d="M171.008 878.592v-146.944l-12.288-80.384q-4.096-24.576-14.592-37.888t-34.56-13.312q-20.992 0-32.256 13.312t-16.384 37.888l-12.8 80.384v146.944h122.88zM366.592 878.592v-146.944l-12.288-80.384q-4.096-24.576-14.592-37.888t-34.56-13.312q-20.992 0-32.256 13.312t-16.384 37.888l-12.8 80.384v146.944h122.88z" />
<glyph unicode="&#x23;" glyph-name="uni23" horiz-adv-x="594" d="M431.104 341.504l-37.888-205.824h-65.024q-9.728 0-18.176 4.608t-14.336 12.544-8.192 18.176 0.256 22.016l27.136 148.48h-95.232l-27.648-155.648q-5.12-27.136-23.040-38.656t-40.448-11.52h-62.464l37.376 205.824h-52.736q-21.504 0-30.464 12.544t-4.352 43.264l7.168 44.544h94.208l24.064 131.584h-105.984l10.752 58.368q4.096 21.504 18.176 31.744t44.288 10.24h46.592l29.696 158.208q4.096 21.504 20.736 34.048t38.656 12.544h64.512l-37.888-204.8h95.744l37.888 204.8h62.976q22.016 0 35.072-13.568t9.472-34.048l-29.184-157.184h101.376l-10.752-58.368q-4.096-21.504-17.92-31.744t-44.032-10.24h-42.496l-24.064-131.584h65.024q21.504 0 30.464-12.8t4.352-43.52l-7.168-44.032h-106.496zM232.96 441.856h95.744l24.064 131.584h-95.744z" />
<glyph unicode="&#x24;" glyph-name="uni24" horiz-adv-x="594" d="M230.4 132.096q-29.696 4.096-58.112 12.544t-54.528 20.48-48.896 27.136-41.216 33.024l43.52 64q5.632 8.192 15.36 13.568t19.968 5.376q11.776 0 24.576-7.168t28.416-17.152 35.328-20.224 45.824-15.872l19.456 212.48q-24.576 6.656-48.896 15.104t-46.848 19.712-41.728 26.368-33.536 36.096-22.528 48.384-8.192 63.232q0 39.936 15.872 77.568t46.336 67.328 75.008 48.896 102.4 22.272l5.632 60.928q1.024 13.312 11.52 23.808t26.368 10.496h52.224l-9.216-100.352q54.784-9.728 94.464-32t67.84-49.408l-34.816-51.2q-7.168-11.776-15.36-17.152t-19.456-5.376q-7.68 0-18.176 4.352t-23.552 10.752-28.416 13.056-33.28 11.264l-17.92-198.656q36.864-11.264 73.216-24.832t65.536-35.328 47.104-54.272 17.92-80.64q0-47.616-16.384-89.856t-47.36-74.752-76.288-52.992-103.168-24.576l-6.144-69.632q-1.024-13.312-11.264-24.064t-26.624-10.752h-51.712zM425.472 349.184q0 17.408-6.144 30.464t-16.896 23.296-25.856 18.176-32.512 14.080l-16.896-189.952q48.64 7.168 73.472 33.536t24.832 70.4zM190.976 683.008q0-17.408 5.888-30.976t16.64-24.32 25.6-19.2 32.768-15.616l15.36 174.080q-26.112-3.584-44.544-11.52t-29.952-18.944-16.64-24.576-5.12-28.928z" />
<glyph unicode="&#x25;" glyph-name="uni25" horiz-adv-x="847" d="M386.56 698.88q0-41.472-14.336-75.264t-38.656-58.112-56.064-37.376-66.048-13.056q-37.888 0-69.632 13.056t-55.040 37.376-36.352 58.112-13.056 75.264q0 43.008 13.056 77.568t36.352 58.88 55.040 37.632 69.632 13.312 70.144-13.312 55.552-37.632 36.352-58.88 13.056-77.568zM278.016 698.88q0 27.648-5.12 46.336t-14.080 29.952-21.248 16.128-26.112 4.864-25.856-4.864-20.48-16.128-13.312-29.952-4.864-46.336q0-27.136 4.864-45.056t13.312-28.928 20.48-15.616 25.856-4.608 26.112 4.608 21.248 15.616 14.080 28.928 5.12 45.056zM627.2 857.088q7.168 8.192 17.152 14.848t27.904 6.656h102.912l-555.52-722.432q-7.168-8.704-17.408-14.592t-25.088-5.888h-104.96zM809.472 310.272q0-41.472-14.336-75.264t-38.656-58.112-56.064-37.376-66.048-13.056q-37.888 0-69.632 13.056t-55.040 37.376-36.352 58.112-13.056 75.264q0 43.008 13.056 77.568t36.352 58.88 55.040 37.376 69.632 13.056 70.144-13.056 55.552-37.376 36.352-58.88 13.056-77.568zM700.928 310.272q0 27.648-5.12 46.336t-14.080 29.952-21.248 16.128-26.112 4.864-25.856-4.864-20.48-16.128-13.312-29.952-4.864-46.336q0-27.136 4.864-45.056t13.312-28.928 20.48-15.616 25.856-4.608 26.112 4.608 21.248 15.616 14.080 28.928 5.12 45.056z" />
<glyph unicode="&#x26;" glyph-name="uni26" horiz-adv-x="745" d="M345.088 886.784q47.104 0 83.968-14.080t62.464-37.632 40.192-53.76 17.664-62.976l-90.112-18.432q-25.088-5.12-36.352 20.48-10.24 26.624-28.416 43.776t-49.408 17.152q-19.456 0-34.816-6.912t-25.856-18.688-15.872-27.392-5.376-33.024q0-14.336 2.816-27.648t9.216-26.88 17.152-27.904 26.112-30.72l190.976-200.192q15.872 31.232 25.088 66.048t12.288 71.168q1.536 13.312 8.96 20.992t20.224 7.68h88.576q-0.512-70.656-19.968-133.632t-54.784-115.712l155.648-162.816h-138.752q-10.752 0-19.2 1.024t-15.616 4.096-13.824 8.192-13.824 12.8l-42.496 44.032q-48.64-37.376-107.776-57.856t-126.72-20.48q-43.52 0-85.504 15.104t-74.752 43.008-52.736 67.584-19.968 89.344q0 34.304 10.752 64.768t30.208 56.832 46.336 47.616 59.136 37.12q-25.6 37.888-37.12 73.984t-11.52 71.424q0 38.912 14.336 73.984t41.472 61.44 66.816 41.728 90.368 15.36zM292.352 238.080q39.936 0 73.984 11.52t62.208 32.512l-184.832 192.512q-35.328-25.6-50.432-56.064t-15.104-64.768q0-26.624 8.704-47.872t24.064-36.352 36.352-23.296 45.056-8.192z" />
<glyph unicode="&#x27;" glyph-name="uni27" horiz-adv-x="220" d="M171.008 878.592v-146.944l-12.288-80.384q-4.096-24.576-14.592-37.888t-34.56-13.312q-20.992 0-32.256 13.312t-16.384 37.888l-12.8 80.384v146.944h122.88z" />
<glyph unicode="&#x28;" glyph-name="uni28" horiz-adv-x="284" d="M156.16 456.704q0-103.936 24.32-205.312t69.376-189.952q6.144-11.264 6.912-19.712t-1.536-15.104-7.168-11.264-11.008-8.192l-62.464-37.376q-37.888 58.368-64.512 117.248t-43.52 119.552-24.832 122.88-7.936 127.232q0 64.512 7.936 126.976t24.832 122.88 43.52 119.552 64.512 116.992l62.464-36.864q6.144-3.584 11.008-8.192t7.168-11.264 1.536-15.36-6.912-19.968q-45.056-88.064-69.376-189.44t-24.32-205.312z" />
<glyph unicode="&#x29;" glyph-name="uni29" horiz-adv-x="284" d="M128 456.704q0 103.936-24.32 205.312t-69.376 189.44q-6.144 11.264-6.912 19.968t1.536 15.36 7.168 11.264 10.496 8.192l62.976 36.864q37.376-57.856 64-116.992t43.52-119.552 24.832-122.88 7.936-126.976q0-65.024-7.936-127.232t-24.832-122.88-43.52-119.552-64-117.248l-62.976 37.376q-5.632 3.584-10.496 8.192t-7.168 11.264-1.536 15.104 6.912 19.712q45.056 88.576 69.376 189.952t24.32 205.312z" />
<glyph unicode="&#x2a;" glyph-name="uni2A" horiz-adv-x="435" d="M183.808 559.104v91.136q0 10.24 1.28 19.968t4.352 18.432q-6.144-6.656-14.080-12.288t-16.64-10.752l-77.824-45.568-33.28 55.808 78.336 45.568q9.216 5.632 18.688 9.472t19.712 5.376q-10.24 1.536-19.712 5.632t-18.688 9.728l-78.336 46.592 32.768 55.296 78.336-46.592q9.216-5.632 17.152-11.264t14.080-12.8q-6.144 17.408-6.144 38.4v92.672h67.072v-91.648q0-10.752-1.28-20.736t-4.352-18.688q6.144 7.168 14.080 12.8t17.152 11.264l77.824 45.568 33.28-55.296-78.336-45.568q-9.216-5.632-18.688-9.472t-19.2-5.888q18.944-3.072 37.888-14.848l78.336-46.592-32.768-55.808-78.336 46.592q-19.456 10.24-31.744 24.064 6.144-17.92 6.144-38.4v-92.16h-67.072z" />
<glyph unicode="&#x2b;" glyph-name="uni2B" horiz-adv-x="594" d="M353.792 737.792v-206.848h194.56v-102.912h-194.56v-207.36h-114.688v207.36h-193.536v102.912h193.536v206.848h114.688z" />
<glyph unicode="&#x2c;" glyph-name="uni2C" horiz-adv-x="242" d="M39.936 219.136q0 15.36 5.632 28.672t16.128 23.040 25.088 15.36 32.512 5.632q20.992 0 36.608-7.424t25.856-19.712 15.36-28.928 5.12-35.072q0-25.088-7.68-52.992t-23.040-56.064-37.632-55.040-51.456-48.896l-24.576 22.016q-5.632 4.608-7.936 9.216t-2.304 11.264q0 4.608 3.328 9.984t7.936 9.984q5.632 6.144 13.824 15.104t16.128 19.968 14.848 24.32 10.496 28.16q-16.896 0.512-30.464 7.168t-23.296 17.408-15.104 25.344-5.376 31.488z" />
<glyph unicode="&#x2d;" glyph-name="uni2D" horiz-adv-x="382" d="M55.808 503.808h270.336v-115.712h-270.336v115.712z" />
<glyph unicode="&#x2e;" glyph-name="uni2E" horiz-adv-x="244" d="M38.4 209.92q0 16.896 6.4 32t17.664 26.112 26.368 17.408 33.024 6.4q17.408 0 32.768-6.4t26.624-17.408 17.664-26.112 6.4-32q0-17.408-6.4-32.256t-17.664-25.856-26.624-17.152-32.768-6.144q-17.92 0-33.024 6.144t-26.368 17.152-17.664 25.856-6.4 32.256z" />
<glyph unicode="&#x2f;" glyph-name="uni2F" horiz-adv-x="483" d="M162.304 137.728q-9.728-25.6-30.976-38.656t-43.264-13.056h-59.904l295.424 764.416q8.704 23.040 27.648 35.84t43.52 12.8h60.416z" />
<glyph unicode="&#x30;" glyph-name="uni30" horiz-adv-x="594" d="M570.88 507.392q0-97.28-20.992-168.96t-57.856-118.528-87.296-69.632-108.8-22.784-108.544 22.784-86.528 69.632-57.088 118.528-20.736 168.96 20.736 168.704 57.088 118.272 86.528 69.632 108.544 22.784 108.8-22.784 87.296-69.632 57.856-118.272 20.992-168.704zM424.96 507.392q0 78.848-11.008 130.048t-28.928 80.896-41.216 41.472-47.872 11.776-47.36-11.776-40.448-41.472-28.416-80.896-10.752-130.048q0-79.36 10.752-130.56t28.416-80.896 40.448-41.472 47.36-11.776 47.872 11.776 41.216 41.472 28.928 80.896 11.008 130.56z" />
<glyph unicode="&#x31;" glyph-name="uni31" horiz-adv-x="594" d="M116.736 239.616h147.456v406.528q0 26.112 1.536 54.784l-96.768-80.384q-10.24-7.68-19.968-9.728t-18.432-0.256-15.36 6.144-10.24 8.96l-44.544 59.904 228.352 193.536h116.224v-639.488h128.512v-103.936h-416.768v103.936z" />
<glyph unicode="&#x32;" glyph-name="uni32" horiz-adv-x="594" d="M304.64 886.784q52.736 0 96-15.616t73.984-43.52 47.616-67.328 16.896-87.040q0-40.96-11.776-75.776t-32-66.304-46.848-61.184-56.32-59.904l-157.696-161.28q26.112 7.168 51.712 11.776t48.128 4.608h166.912q23.040 0 36.096-12.8t13.056-33.792v-82.944h-515.072v46.080q0 13.312 5.632 28.928t18.944 28.416l220.16 220.672q28.16 28.16 49.664 54.016t35.84 50.688 21.504 50.432 7.168 53.76q0 49.664-25.6 75.52t-72.192 25.856q-20.48 0-37.632-5.888t-30.72-16.128-23.296-24.064-14.336-30.208q-9.216-25.6-24.832-34.048t-44.288-3.84l-74.752 13.312q8.192 54.272 30.72 95.232t56.32 68.096 77.312 40.704 93.696 13.568z" />
<glyph unicode="&#x33;" glyph-name="uni33" horiz-adv-x="594" d="M308.224 886.784q53.248 0 95.488-15.104t71.424-41.216 44.8-60.928 15.616-74.752q0-35.328-7.68-62.208t-22.272-46.848-35.84-33.792-48.896-23.040q128.512-43.008 128.512-170.496 0-56.832-20.992-100.096t-56.32-72.448-82.176-43.776-98.048-14.592q-54.272 0-95.744 12.288t-72.96 36.864-54.016 61.696-39.424 86.784l62.464 25.6q24.576 10.24 45.824 5.632t30.464-22.528q10.24-19.456 21.76-35.84t25.856-28.416 32.512-18.688 41.728-6.656q29.696 0 51.712 9.728t36.864 25.344 22.272 35.328 7.424 39.168q0 25.6-4.608 46.336t-21.248 35.328-49.152 22.528-88.32 7.936v99.328q46.592 0 76.288 7.68t46.592 21.504 23.296 33.28 6.4 42.496q0 48.64-25.344 74.24t-71.936 25.6q-20.48 0-37.632-5.888t-30.72-16.128-23.296-24.064-14.336-30.208q-9.728-25.6-25.088-34.048t-44.544-3.84l-74.24 13.312q8.192 54.272 30.72 95.232t56.32 68.096 77.056 40.704 93.44 13.568z" />
<glyph unicode="&#x34;" glyph-name="uni34" horiz-adv-x="594" d="M483.328 419.328h86.016v-79.872q0-11.264-7.424-19.2t-20.736-7.936h-57.856v-176.64h-122.88v176.64h-306.688q-13.312 0-24.32 8.192t-13.568 21.504l-14.848 70.656 348.16 466.432h134.144v-459.776zM360.448 640.512q0 17.408 1.024 36.864t3.584 40.96l-214.528-299.008h209.92v221.184z" />
<glyph unicode="&#x35;" glyph-name="uni35" horiz-adv-x="594" d="M515.072 819.2q0-14.848-4.352-26.88t-14.336-20.992-25.6-13.824-38.144-4.864h-192l-24.576-140.288q23.040 4.096 44.544 6.4t41.472 2.304q58.368 0 103.168-17.664t75.264-48.384 45.824-72.192 15.36-89.088q0-59.392-20.992-108.288t-58.112-83.968-88.576-54.528-112.384-19.456q-35.328 0-67.584 7.424t-60.16 19.968-51.968 28.928-43.008 34.304l43.52 59.392q13.824 18.944 35.84 18.944 13.824 0 27.136-8.192t30.208-18.176 39.424-18.176 54.784-8.192q33.28 0 57.856 11.008t40.704 30.208 24.064 45.568 7.936 56.576q0 57.856-33.024 89.344t-96 31.488q-51.712 0-103.936-19.456l-87.552 24.576 62.464 365.568h372.736v-59.392z" />
<glyph unicode="&#x36;" glyph-name="uni36" horiz-adv-x="594" d="M277.504 611.84q-12.288-13.824-23.040-27.648 19.456 8.704 42.24 13.568t48.896 4.864q41.472 0 80.896-13.824t70.144-41.472 49.408-69.376 18.688-98.048q0-51.712-19.2-97.792t-54.272-80.384-83.968-54.272-108.8-19.968q-60.928 0-109.056 19.2t-81.92 54.016-51.712 83.2-17.92 106.752q0 53.76 21.248 109.056t64.768 113.664l172.544 232.448q10.24 13.312 30.208 23.040t45.568 9.728h125.44zM173.568 370.176q0-29.184 7.68-52.992t23.040-40.704 38.144-26.112 53.504-9.216q27.648 0 51.2 9.728t40.448 27.136 26.624 40.704 9.728 50.944q0 30.208-9.216 54.272t-26.112 40.704-40.448 25.344-52.224 8.704q-27.136 0-49.664-9.472t-38.656-26.624-25.088-40.704-8.96-51.712z" />
<glyph unicode="&#x37;" glyph-name="uni37" horiz-adv-x="594" d="M561.664 878.592v-60.416q0-26.624-5.888-43.008t-11.52-27.648l-270.336-564.736q-10.24-19.456-27.648-33.28t-47.104-13.824h-102.4l276.992 551.424q10.24 19.456 20.992 35.328t24.064 30.208h-342.528q-12.288 0-22.272 9.728t-9.984 22.016v94.208h517.632z" />
<glyph unicode="&#x38;" glyph-name="uni38" horiz-adv-x="594" d="M296.96 127.488q-58.368 0-106.496 15.616t-82.432 44.032-53.248 68.864-18.944 90.112q0 63.488 30.72 108.8t98.304 67.84q-52.736 23.040-78.592 64.512t-25.856 98.816q0 43.008 17.408 79.616t48.896 63.488 75.008 42.24 95.232 15.36 95.232-15.36 75.008-42.24 48.896-63.488 17.408-79.616q0-57.344-26.112-98.816t-78.336-64.512q67.072-22.528 98.048-67.84t30.976-108.8q0-49.664-18.944-90.112t-53.248-68.864-82.432-44.032-106.496-15.616zM296.96 235.52q29.184 0 50.944 8.704t36.096 23.808 21.504 35.84 7.168 44.8q0 55.296-28.416 85.76t-87.296 30.464-87.296-30.464-28.416-85.76q0-24.064 7.168-44.8t21.504-35.84 36.096-23.808 50.944-8.704zM296.96 573.952q29.184 0 48.128 9.216t30.208 24.576 15.872 35.072 4.608 40.704q0 19.456-5.632 37.376t-17.664 31.488-30.72 21.76-44.8 8.192-44.8-8.192-30.72-21.76-17.664-31.488-5.632-37.376q0-20.992 4.608-40.704t15.872-35.072 30.208-24.576 48.128-9.216z" />
<glyph unicode="&#x39;" glyph-name="uni39" horiz-adv-x="594" d="M328.192 420.864q7.68 9.728 14.848 18.944l14.336 18.432q-24.576-14.336-53.504-21.76t-61.184-7.424q-37.376 0-73.984 13.312t-65.792 39.936-47.104 66.816-17.92 94.464q0 49.664 18.432 93.952t52.224 77.312 81.152 52.48 105.216 19.456q58.368 0 104.96-18.176t78.848-50.944 49.664-78.080 17.408-99.584q0-35.328-5.632-67.072t-16.384-60.416-25.856-55.808-34.048-53.248l-165.376-236.032q-10.24-13.312-29.44-22.528t-43.776-9.216h-130.048zM411.136 653.312q0 29.184-8.704 51.456t-24.32 37.632-37.12 23.296-47.616 7.936q-26.624 0-47.616-8.96t-35.84-25.088-22.784-38.144-7.936-47.616q0-58.88 28.928-89.6t84.736-30.72q28.16 0 50.432 8.96t37.12 24.832 22.784 37.888 7.936 48.128z" />
<glyph unicode="&#x3a;" glyph-name="uni3A" horiz-adv-x="267" d="M50.176 209.92q0 16.896 6.4 32t17.664 26.112 26.368 17.408 33.024 6.4q17.408 0 32.768-6.4t26.624-17.408 17.664-26.112 6.4-32q0-17.408-6.4-32.256t-17.664-25.856-26.624-17.152-32.768-6.144q-17.92 0-33.024 6.144t-26.368 17.152-17.664 25.856-6.4 32.256zM50.176 568.32q0 16.896 6.4 32t17.664 26.112 26.368 17.408 33.024 6.4q17.408 0 32.768-6.4t26.624-17.408 17.664-26.112 6.4-32q0-17.408-6.4-32.256t-17.664-25.856-26.624-17.152-32.768-6.144q-17.92 0-33.024 6.144t-26.368 17.152-17.664 25.856-6.4 32.256z" />
<glyph unicode="&#x3b;" glyph-name="uni3B" horiz-adv-x="281" d="M59.904 219.136q0 15.36 5.632 28.672t16.128 23.040 25.088 15.36 32.512 5.632q20.992 0 36.608-7.424t25.856-19.712 15.36-28.928 5.12-35.072q0-25.088-7.68-52.992t-23.040-56.064-37.632-55.040-51.456-48.896l-24.576 22.016q-5.632 4.608-7.936 9.216t-2.304 11.264q0 4.608 3.328 9.984t7.936 9.984q5.632 6.144 13.824 15.104t16.128 19.968 14.848 24.32 10.496 28.16q-16.896 0.512-30.464 7.168t-23.296 17.408-15.104 25.344-5.376 31.488zM55.808 568.32q0 16.896 6.4 32t17.664 26.112 26.368 17.408 33.024 6.4q17.408 0 32.768-6.4t26.624-17.408 17.664-26.112 6.4-32q0-17.408-6.4-32.256t-17.664-25.856-26.624-17.152-32.768-6.144q-17.92 0-33.024 6.144t-26.368 17.152-17.664 25.856-6.4 32.256z" />
<glyph unicode="&#x3c;" glyph-name="uni3C" horiz-adv-x="594" d="M75.264 508.928l410.112 214.016v-99.328q0-10.752-5.376-19.968t-18.688-15.36l-167.424-88.064q-12.8-6.144-26.624-10.752t-29.184-8.704q15.36-3.584 29.184-8.448t26.624-11.008l167.424-87.552q13.312-6.144 18.688-15.36t5.376-20.48v-99.328l-410.112 214.528v55.808z" />
<glyph unicode="&#x3d;" glyph-name="uni3D" horiz-adv-x="594" d="M67.584 439.296h458.752v-102.912h-458.752v102.912zM67.584 623.104h458.752v-102.912h-458.752v102.912z" />
<glyph unicode="&#x3e;" glyph-name="uni3E" horiz-adv-x="594" d="M108.544 238.592v99.328q0 11.264 5.376 20.48t18.688 15.36l167.424 87.552q12.288 6.144 26.368 10.752t29.952 8.704q-31.232 6.656-56.32 19.456l-167.424 88.064q-13.312 6.144-18.688 15.36t-5.376 19.968v99.328l410.112-214.016v-55.808z" />
<glyph unicode="&#x3f;" glyph-name="uni3F" horiz-adv-x="476" d="M33.792 811.008q18.432 15.872 39.68 29.696t46.080 24.064 53.76 16.128 62.208 5.888q46.080 0 83.456-12.544t64-35.84 41.216-56.064 14.592-73.216q0-38.912-11.008-67.328t-27.648-49.408-36.608-36.352-37.888-28.672-30.976-26.368-16.128-28.928l-12.8-73.216h-96.768l-9.728 82.944q-3.584 24.576 6.144 42.752t26.112 33.28 36.608 29.184 37.888 30.208 29.696 36.352 12.032 47.872q0 33.792-23.296 53.76t-61.696 19.968q-28.16 0-47.36-6.144t-33.024-13.568-23.552-13.568-18.432-6.144q-19.456 0-29.184 16.896zM129.536 209.92q0 16.896 6.4 32t17.664 26.112 26.368 17.408 33.024 6.4q17.408 0 32.768-6.4t26.624-17.408 17.664-26.112 6.4-32q0-17.408-6.4-32.256t-17.664-25.856-26.624-17.152-32.768-6.144q-17.92 0-33.024 6.144t-26.368 17.152-17.664 25.856-6.4 32.256z" />
<glyph unicode="&#x40;" glyph-name="uni40" horiz-adv-x="866" d="M610.304 229.376q-33.792 0-61.44 15.36t-39.936 50.688q-30.208-35.328-64-50.432t-72.192-15.104q-32.768 0-57.088 11.264t-40.704 31.488-24.576 47.872-8.192 59.904q0 29.184 7.424 59.136t22.272 57.856 37.376 52.48 52.736 42.752 68.352 28.672 84.736 10.496q20.992 0 38.4-1.536t32.768-4.608 28.928-7.68 27.392-10.24l-49.664-192q-7.168-30.208-7.424-49.92t5.376-30.976 16.128-15.616 24.32-4.352q19.968 0 37.888 13.312t31.232 37.12 20.992 56.32 7.68 70.912q0 65.024-19.968 114.944t-56.064 83.2-86.784 50.432-111.616 17.152q-44.544 0-84.736-11.264t-74.496-32-61.952-49.92-47.104-65.024-29.952-77.056-10.496-86.272q0-82.944 25.6-145.92t70.4-104.96 105.728-63.232 132.096-21.248q39.936 0 73.984 4.352t62.464 11.52 50.944 16.384 39.424 18.944q14.848 8.192 25.856 4.864t16.128-16.64l19.456-49.664q-52.736-34.816-124.16-56.832t-164.096-22.016q-94.208 0-174.080 29.44t-137.984 84.48-90.88 133.632-32.768 176.896q0 54.272 14.336 105.984t40.448 97.28 63.232 83.712 82.688 65.536 98.56 42.752 111.36 15.36q48.64 0 95.488-11.008t88.576-32.256 76.8-52.224 60.416-70.4 39.424-86.784 14.080-102.144-16.384-102.656-45.568-83.712-69.376-56.32-87.808-20.48zM400.896 318.976q12.288 0 24.576 3.84t23.552 13.312 20.224 25.088 15.104 39.68l36.864 142.336q-7.168 1.024-14.592 1.536t-15.104 0.512q-29.184 0-54.784-13.056t-44.8-35.328-30.208-51.456-11.008-61.44q0-31.744 12.8-48.384t37.376-16.64z" />
<glyph unicode="&#x41;" glyph-name="uni41" horiz-adv-x="719" d="M728.064 135.68h-119.296q-19.968 0-32.512 9.472t-18.688 24.32l-50.176 141.824h-295.936l-50.176-141.824q-5.12-12.8-17.92-23.296t-32.256-10.496h-120.32l290.304 742.912h157.184zM248.832 417.792h221.184l-80.384 227.328q-7.168 17.92-15.104 41.984t-15.616 51.712q-7.168-28.16-14.848-52.48t-14.848-42.24z" />
<glyph unicode="&#x42;" glyph-name="uni42" horiz-adv-x="679" d="M77.824 135.68v742.912h263.68q74.752 0 127.744-14.080t86.528-39.936 48.896-62.72 15.36-82.432q0-25.6-7.424-49.152t-23.040-44.288-40.192-37.632-58.368-28.672q148.48-34.816 148.48-163.328 0-47.104-18.176-87.552t-52.992-70.144-85.76-46.336-116.992-16.64h-287.744zM231.424 456.704v-203.264h131.584q36.864 0 60.672 8.96t38.144 23.808 19.968 34.048 5.632 39.68q0 22.528-6.656 40.448t-21.504 30.464-38.656 19.2-58.624 6.656h-130.56zM231.424 561.152h100.864q32.256 0 57.344 5.376t41.984 17.152 25.856 30.976 8.96 46.336q0 27.648-7.424 47.104t-22.784 31.232-38.912 17.152-55.808 5.376h-110.080v-200.704z" />
<glyph unicode="&#x43;" glyph-name="uni43" horiz-adv-x="675" d="M583.68 318.464q12.8 0 21.504-9.216l60.928-65.024q-45.056-57.344-111.872-87.040t-158.976-29.696q-83.456 0-150.016 28.416t-113.152 79.104-71.68 120.32-25.088 152.064q0 55.296 12.032 105.216t35.072 91.904 55.552 75.776 73.472 57.6 89.344 36.352 103.168 12.544q40.96 0 77.568-7.168t68.352-19.968 58.624-30.976 48.384-39.68l-51.712-70.656q-4.608-6.656-11.776-11.776t-19.456-5.12-24.832 8.704-30.72 19.456-45.568 19.456-69.376 8.704q-46.592 0-85.504-16.896t-66.816-48.896-43.264-78.592-15.36-105.984q0-59.904 16.64-106.752t45.568-79.104 67.584-48.896 82.688-16.64q26.112 0 47.36 2.56t39.424 8.704 34.304 15.872 32.512 24.576q5.632 4.608 11.776 7.68t13.312 3.072z" />
<glyph unicode="&#x44;" glyph-name="uni44" horiz-adv-x="779" d="M743.936 507.392q0-81.408-27.392-149.76t-77.312-117.504-120.064-76.8-155.648-27.648h-285.696v742.912h285.696q85.504 0 155.648-27.648t120.064-77.056 77.312-117.504 27.392-148.992zM586.24 507.392q0 58.368-15.36 104.96t-44.032 78.848-69.888 49.664-93.44 17.408h-131.072v-502.272h131.072q52.224 0 93.44 17.152t69.888 49.664 44.032 79.104 15.36 105.472z" />
<glyph unicode="&#x45;" glyph-name="uni45" horiz-adv-x="588" d="M550.912 878.592v-120.32h-318.464v-190.976h247.808v-116.224h-247.808v-195.072h318.464v-120.32h-473.088v742.912h473.088z" />
<glyph unicode="&#x46;" glyph-name="uni46" horiz-adv-x="580" d="M550.912 878.592v-120.32h-318.464v-205.312h267.264v-120.832h-267.264v-296.448h-154.624v742.912h473.088z" />
<glyph unicode="&#x47;" glyph-name="uni47" horiz-adv-x="742" d="M694.272 207.36q-56.832-41.472-121.088-60.672t-135.936-19.2q-91.648 0-165.888 28.416t-126.976 79.104-81.408 120.32-28.672 152.064q0 83.456 27.392 153.088t78.080 119.808 122.624 78.336 161.024 28.16q46.080 0 86.016-7.424t73.728-20.48 61.952-30.976 51.2-39.424l-44.544-68.608q-10.24-16.384-26.624-19.968t-35.84 8.192q-18.432 11.264-36.096 20.224t-37.632 15.616-43.52 10.24-54.272 3.584q-51.712 0-93.696-17.92t-71.424-50.688-45.312-78.848-15.872-102.912q0-61.44 17.408-109.824t49.152-81.664 76.032-50.688 98.56-17.408q36.864 0 65.792 7.424t56.576 20.224v124.928h-83.968q-14.848 0-23.296 7.936t-8.448 20.224v85.504h254.976v-306.688z" />
<glyph unicode="&#x48;" glyph-name="uni48" horiz-adv-x="792" d="M714.24 135.68h-154.624v320h-327.168v-320h-154.624v742.912h154.624v-315.392h327.168v315.392h154.624v-742.912z" />
<glyph unicode="&#x49;" glyph-name="uni49" horiz-adv-x="310" d="M232.448 135.68h-154.624v742.912h154.624v-742.912z" />
<glyph unicode="&#x4a;" glyph-name="uni4A" horiz-adv-x="442" d="M371.712 401.92q0-62.464-15.36-112.896t-46.336-86.528-77.568-55.552-108.544-19.456q-28.16 0-55.552 3.328t-57.6 10.496l8.192 90.112q1.536 12.288 9.728 19.712t23.552 7.424q8.704 0 22.272-3.072t33.536-3.072q27.648 0 48.128 7.68t34.304 25.088 20.736 45.312 6.912 67.84v480.256h153.6v-476.672z" />
<glyph unicode="&#x4b;" glyph-name="uni4B" horiz-adv-x="712" d="M231.424 571.904h30.208q37.888 0 54.784 23.552l187.904 251.392q13.312 17.92 29.184 24.832t38.912 6.912h133.12l-236.544-304.64q-23.040-29.696-47.616-42.496 17.92-7.168 32.256-18.688t27.648-30.464l242.688-346.624h-136.704q-13.312 0-22.784 2.048t-16.64 5.632-12.288 8.96-9.728 12.544l-190.976 267.264q-9.728 13.824-23.040 19.712t-37.376 5.888h-43.008v-322.048h-153.6v742.912h153.6v-306.688z" />
<glyph unicode="&#x4c;" glyph-name="uni4C" horiz-adv-x="535" d="M231.424 260.608h287.232v-124.928h-440.832v742.912h153.6v-617.984z" />
<glyph unicode="&#x4d;" glyph-name="uni4D" horiz-adv-x="974" d="M453.632 458.24q9.216-17.92 17.664-36.864t16.128-38.912q7.68 20.48 16.384 39.936t18.432 37.376l206.336 394.752q4.608 8.704 9.728 13.568t11.008 7.168 13.312 2.816 17.664 0.512h116.736v-742.912h-135.68v456.192q0 13.824 0.768 30.208t2.304 33.792l-211.968-402.944q-17.408-33.28-53.76-33.28h-21.504q-17.92 0-31.744 8.448t-22.016 24.832l-213.504 403.968q1.536-17.408 2.56-34.048t1.024-30.976v-456.192h-135.68v742.912h116.736q9.728 0 17.408-0.512t13.568-2.816 10.752-7.168 9.472-13.568l207.872-396.288z" />
<glyph unicode="&#x4e;" glyph-name="uni4E" horiz-adv-x="792" d="M158.72 878.592q9.728 0 16.64-0.768t12.544-3.584 10.752-7.424 11.264-12.288l372.736-473.6q-2.048 19.456-3.072 37.888t-1.024 34.816v424.96h135.68v-742.912h-79.36q-17.92 0-30.208 5.888t-24.064 20.224l-370.176 470.528q1.536-17.92 2.304-35.072t0.768-32v-429.568h-135.68v742.912h80.896z" />
<glyph unicode="&#x4f;" glyph-name="uni4F" horiz-adv-x="830" d="M795.648 507.392q0-81.408-27.392-151.040t-77.312-120.32-120.064-79.616-155.648-28.928-155.648 28.928-120.32 79.616-77.568 120.32-27.392 151.040 27.392 150.784 77.568 120.064 120.32 79.616 155.648 28.928 155.648-28.928 120.064-79.872 77.312-120.32 27.392-150.272zM638.464 507.392q0 58.368-15.36 104.704t-44.288 78.848-70.144 49.664-93.44 17.152-93.696-17.152-70.4-49.664-44.288-78.848-15.36-104.704q0-58.88 15.36-105.216t44.288-78.592 70.4-49.408 93.696-17.152 93.44 17.152 70.144 49.408 44.288 78.592 15.36 105.216z" />
<glyph unicode="&#x50;" glyph-name="uni50" horiz-adv-x="642" d="M231.424 391.168v-255.488h-153.6v742.912h250.88q76.288 0 131.84-17.92t91.392-49.92 52.992-76.032 17.152-95.744q0-54.784-17.92-100.352t-54.272-78.336-91.648-50.944-129.536-18.176h-97.28zM231.424 508.928h97.28q72.192 0 105.728 34.816t33.536 95.232q0 27.648-8.448 50.432t-25.6 38.912-43.264 24.832-61.952 8.704h-97.28v-252.928z" />
<glyph unicode="&#x51;" glyph-name="uni51" horiz-adv-x="831" d="M796.16 507.392q0-49.152-9.984-93.952t-29.184-84.224-46.848-72.448-62.464-58.624l188.416-204.8h-126.464q-27.648 0-49.408 7.168t-40.192 26.624l-100.864 112.128q-49.664-11.776-103.424-11.776-85.504 0-155.648 28.928t-120.32 79.616-77.568 120.32-27.392 151.040 27.392 150.784 77.568 120.064 120.32 79.616 155.648 28.928 155.648-28.928 120.064-79.872 77.312-120.32 27.392-150.272zM638.976 507.392q0 58.368-15.36 104.704t-44.288 78.848-70.144 49.664-93.44 17.152-93.696-17.152-70.4-49.664-44.288-78.848-15.36-104.704q0-58.88 15.36-105.216t44.288-78.592 70.4-49.408 93.696-17.152 93.44 17.152 70.144 49.408 44.288 78.592 15.36 105.216z" />
<glyph unicode="&#x52;" glyph-name="uni52" horiz-adv-x="665" d="M231.424 418.816v-283.136h-153.6v742.912h233.472q77.824 0 133.12-16.128t90.624-44.8 51.712-68.352 16.384-87.296q0-36.864-10.496-69.888t-30.464-60.16-49.152-48.128-67.072-33.792q14.848-8.192 27.904-19.712t23.296-27.392l173.056-267.264h-138.752q-38.912 0-56.32 29.696l-141.312 227.84q-8.704 13.312-19.2 19.456t-30.976 6.144h-52.224zM231.424 526.848h78.848q37.376 0 64.512 9.472t44.544 26.112 25.6 39.168 8.192 49.152q0 52.736-35.072 81.92t-106.752 29.184h-79.872v-235.008z" />
<glyph unicode="&#x53;" glyph-name="uni53" horiz-adv-x="564" d="M480.256 736.256q-7.168-11.776-14.592-17.152t-19.2-5.376q-11.264 0-24.32 7.936t-30.464 17.152-39.936 17.152-52.736 7.936q-53.248 0-79.872-23.808t-26.624-62.208q0-24.576 14.592-40.704t38.4-27.904 54.016-20.992 61.952-20.224 61.952-25.856 54.016-37.376 38.4-55.040 14.592-79.104q0-50.688-17.664-94.976t-50.944-77.312-82.176-51.968-110.848-18.944q-35.328 0-70.4 7.168t-67.584 19.968-61.184 30.72-50.176 39.936l45.056 72.704q5.632 8.192 14.848 13.568t19.456 5.376q13.824 0 29.184-10.24t35.328-22.528 46.336-22.528 63.232-10.24q53.76 0 83.2 24.576t29.44 73.216q0 28.16-14.592 45.568t-38.144 29.184-53.76 20.224-61.952 18.688-61.952 24.576-53.76 37.888-38.144 58.368-14.592 86.528q0 41.472 16.384 80.384t48.128 69.12 78.080 48.64 106.24 18.432q67.072 0 124.16-20.736t96.512-57.6z" />
<glyph unicode="&#x54;" glyph-name="uni54" horiz-adv-x="618" d="M603.648 878.592v-123.904h-217.088v-619.008h-154.112v619.008h-217.088v123.904h588.288z" />
<glyph unicode="&#x55;" glyph-name="uni55" horiz-adv-x="763" d="M381.952 258.56q37.376 0 67.072 12.544t50.176 35.584 31.232 55.808 10.752 73.728v442.368h153.6v-442.368q0-67.584-21.76-124.16t-62.208-97.536-98.304-64-130.56-23.040-130.816 23.040-98.56 64-62.208 97.536-21.76 124.16v442.368h153.6v-442.368q0-40.96 10.752-73.728t31.232-55.808 50.176-35.584 67.584-12.544z" />
<glyph unicode="&#x56;" glyph-name="uni56" horiz-adv-x="719" d="M-9.216 878.592h123.904q19.968 0 32.512-9.472t18.688-24.32l160.768-428.032q9.216-24.064 18.176-52.48t16.128-59.648q6.656 31.232 14.848 59.648t17.408 52.48l159.744 428.032q5.12 12.8 18.176 23.296t32.512 10.496h124.416l-299.008-742.912h-139.264z" />
<glyph unicode="&#x57;" glyph-name="uni57" horiz-adv-x="1083" d="M5.632 878.592h129.024q19.968 0 33.536-9.216t17.664-24.576l115.2-418.816q4.096-17.92 8.448-37.888t8.448-42.496q4.608 22.528 9.728 42.752t11.264 37.632l134.144 418.816q4.096 12.8 17.664 23.296t33.024 10.496h45.056q19.968 0 32.512-9.472t18.688-24.32l133.632-418.816q5.632-16.384 11.008-35.84t9.472-40.96q4.096 21.504 8.192 40.96t8.192 35.84l115.2 418.816q3.584 13.312 17.408 23.552t33.28 10.24h120.832l-230.4-742.912h-138.752l-152.064 485.888q-4.096 10.24-7.424 22.528t-6.4 25.6q-3.584-13.312-6.912-25.6t-6.912-22.528l-153.6-485.888h-139.264z" />
<glyph unicode="&#x58;" glyph-name="uni58" horiz-adv-x="696" d="M241.152 517.632l-233.984 360.96h153.6q15.36 0 22.528-4.096t12.8-13.312l159.232-262.656q2.56 6.144 5.888 12.544t7.424 13.056l143.36 234.496q6.144 10.24 13.568 15.104t18.176 4.864h146.944l-236.032-354.304 242.176-388.608h-153.6q-15.36 0-24.832 7.68t-15.104 17.92l-161.28 273.408q-2.048-5.632-4.608-11.008t-5.12-9.984l-152.576-252.416q-6.656-9.728-15.616-17.664t-22.784-7.936h-143.36z" />
<glyph unicode="&#x59;" glyph-name="uni59" horiz-adv-x="674" d="M413.696 420.864v-285.184h-153.6v285.184l-269.824 457.728h135.168q19.968 0 32-9.472t19.2-24.32l121.856-233.984q12.288-23.552 22.272-44.032t17.152-40.96q14.336 39.424 38.4 84.992l120.832 233.984q6.144 12.288 18.432 23.040t31.744 10.752h136.192z" />
<glyph unicode="&#x5a;" glyph-name="uni5A" horiz-adv-x="622" d="M596.48 878.592v-56.32q0-11.776-3.84-23.808t-11.008-22.272l-366.592-520.192h371.2v-120.32h-568.32v59.904q0 10.752 3.584 21.248t10.24 19.2l367.104 522.24h-354.816v120.32h552.448z" />
<glyph unicode="&#x5b;" glyph-name="uni5B" horiz-adv-x="324" d="M80.896-25.6v955.904h219.136v-54.784q0-14.336-10.496-24.832t-26.88-10.496h-64v-776.192h64q16.384 0 26.88-10.496t10.496-24.832v-54.272h-219.136z" />
<glyph unicode="&#x5c;" glyph-name="uni5C" horiz-adv-x="483" d="M28.16 899.072h59.904q25.088 0 44.032-12.8t27.648-35.84l295.424-764.416h-59.904q-22.528 0-43.52 13.056t-31.232 38.656z" />
<glyph unicode="&#x5d;" glyph-name="uni5D" horiz-adv-x="324" d="M24.576 930.304h218.624v-955.904h-218.624v54.272q0 14.336 10.24 24.832t26.624 10.496h64v776.192h-64q-16.384 0-26.624 10.496t-10.24 24.832v54.784z" />
<glyph unicode="&#x5e;" glyph-name="uni5E" horiz-adv-x="594" d="M550.4 481.792h-103.424q-12.8 0-21.248 6.144t-13.568 16.384l-89.088 185.856q-8.704 17.408-15.36 33.28t-11.776 31.232q-4.608-15.36-10.752-31.232t-13.824-33.28l-82.432-185.856q-4.096-9.728-13.312-16.128t-23.040-6.4h-109.056l205.312 396.8h91.648z" />
<glyph unicode="&#x5f;" glyph-name="uni5F" horiz-adv-x="481" d="M441.856 73.216v-90.112h-403.456v90.112h403.456z" />
<glyph unicode="&#x60;" glyph-name="uni60" d="M161.792 886.784q22.016 0 33.024-7.168t19.2-21.504l71.168-124.928h-79.872q-15.872 0-25.856 4.352t-20.224 15.104l-129.536 134.144h132.096z" />
<glyph unicode="&#x61;" glyph-name="uni61" horiz-adv-x="524" d="M407.552 135.68q-19.968 0-30.464 5.632t-17.152 23.552l-11.264 33.28q-19.968-17.408-38.656-30.464t-38.912-22.016-43.008-13.568-50.432-4.608q-34.816 0-63.488 9.216t-49.408 27.392-32 45.312-11.264 62.464q0 29.184 14.848 58.112t50.944 52.736 96.256 39.68 150.784 17.92v27.136q0 49.664-20.992 72.96t-60.416 23.296q-29.184 0-48.64-6.912t-34.048-14.848-27.392-14.848-29.696-6.912q-14.848 0-24.832 7.424t-16.64 17.664l-25.088 45.056q46.592 41.984 102.912 62.72t121.856 20.736q47.104 0 84.224-15.36t62.976-42.752 39.68-65.28 13.824-82.944v-331.776h-64.512zM221.696 222.72q34.816 0 60.928 12.544t51.712 38.656v81.92q-51.712-2.048-86.016-8.704t-54.528-16.64-28.672-23.040-8.448-28.416q0-30.72 17.152-43.52t47.872-12.8z" />
<glyph unicode="&#x62;" glyph-name="uni62" horiz-adv-x="585" d="M58.368 135.68v763.392h141.312v-296.448q31.232 31.232 68.864 50.176t85.248 18.944q45.568 0 82.176-18.176t62.464-51.968 39.936-81.664 14.080-107.264q0-64-16.128-116.48t-45.824-89.856-70.912-57.856-91.904-20.48q-24.576 0-44.032 4.864t-35.84 13.568-30.208 20.736-26.112 26.88l-5.632-31.744q-3.584-14.848-11.776-20.736t-22.016-5.888h-93.696zM304.64 563.712q-33.28 0-57.6-14.848t-47.36-42.496v-231.424q19.968-23.040 43.264-32.256t48.384-9.216q26.112 0 47.36 9.472t36.608 30.208 23.552 54.016 8.192 80.384q0 41.984-6.656 71.424t-19.712 48.384-32 27.648-44.032 8.704z" />
<glyph unicode="&#x63;" glyph-name="uni63" horiz-adv-x="496" d="M441.344 545.792q-6.144-8.192-12.288-12.544t-17.408-4.352q-10.24 0-19.712 5.888t-21.76 12.8-29.184 12.8-41.984 5.888q-31.744 0-55.040-11.52t-38.656-33.024-22.784-52.224-7.424-69.12q0-80.896 32.512-123.904t88.832-43.008q19.456 0 33.536 3.328t24.576 8.448 18.176 11.264 14.592 11.264 13.824 8.448 15.616 3.328q16.384 0 25.6-12.288l40.448-51.2q-22.528-26.112-48.128-43.264t-52.992-27.136-55.552-13.824-55.808-3.84q-48.64 0-92.16 18.176t-76.288 52.992-51.968 85.504-19.2 115.712q0 57.856 16.896 107.52t49.664 86.016 81.152 57.088 111.872 20.736q60.416 0 105.984-19.456t81.92-56.32z" />
<glyph unicode="&#x64;" glyph-name="uni64" horiz-adv-x="585" d="M438.784 135.68q-27.136 0-34.816 24.576l-11.776 46.080q-31.744-34.816-71.936-56.576t-94.976-21.76q-42.496 0-77.824 17.92t-61.184 52.48-40.192 84.736-14.336 114.688q0 58.88 16.128 109.568t45.824 87.552 71.68 57.856 93.184 20.992q43.008 0 72.448-12.8t53.504-34.816v272.896h141.312v-763.392h-87.040zM273.92 237.568q37.376 0 62.72 14.592t47.872 42.24v231.936q-19.968 23.040-43.264 32.256t-49.408 9.216q-25.6 0-46.592-9.728t-36.096-30.464-23.296-52.992-8.192-76.8q0-44.032 6.656-74.752t19.2-49.664 30.464-27.392 39.936-8.448z" />
<glyph unicode="&#x65;" glyph-name="uni65" horiz-adv-x="549" d="M287.232 671.744q50.688 0 93.44-16.128t73.728-46.848 48.128-75.52 17.152-102.144q0-15.872-1.536-26.112t-5.12-16.384-9.728-8.448-15.872-2.304h-316.928q6.656-74.24 42.24-108.544t93.44-34.304q29.184 0 50.432 6.912t37.376 15.36 29.184 15.36 25.856 6.912q16.384 0 25.6-12.288l40.96-51.2q-22.528-26.112-49.664-43.264t-56.32-27.136-58.88-13.824-57.344-3.84q-55.296 0-103.168 18.176t-83.456 53.76-56.064 88.32-20.48 122.368q0 53.76 17.664 101.376t50.944 82.944 80.896 56.064 107.52 20.736zM289.792 572.416q-50.688 0-79.36-28.928t-37.376-81.664h220.16q0 22.016-5.888 41.984t-18.688 35.328-32.256 24.32-46.592 8.96z" />
<glyph unicode="&#x66;" glyph-name="uni66" horiz-adv-x="371" d="M96.768 135.68v426.496l-40.96 7.168q-15.872 3.072-25.856 11.264t-9.984 23.552v56.32h76.8v34.816q0 45.056 14.080 81.664t40.192 61.952 64 39.168 85.504 13.824q18.432 0 35.072-2.304t33.536-6.912l-3.072-69.632q-1.024-15.872-13.568-20.736t-27.904-4.864q-21.504 0-38.656-4.608t-28.928-15.616-17.92-29.696-6.144-46.336v-30.72h131.072v-98.304h-126.464v-426.496h-140.8z" />
<glyph unicode="&#x67;" glyph-name="uni67" horiz-adv-x="544" d="M254.976 672.768q33.792 0 63.744-6.912t55.040-19.712h155.136v-51.712q0-12.288-6.912-19.456t-22.784-10.752l-43.008-8.704q8.704-25.088 8.704-53.76 0-39.424-16.128-70.912t-44.288-53.76-66.56-34.304-82.944-12.032q-13.824 0-27.136 1.024t-26.112 3.072q-20.992-12.8-20.992-28.672 0-14.848 14.592-21.504t38.4-9.472 54.272-3.584 61.952-3.328 61.952-8.96 54.272-20.992 38.4-38.656 14.592-61.952q0-35.328-17.408-68.608t-50.432-59.392-81.152-41.984-109.568-15.872q-60.928 0-105.728 11.52t-74.24 30.72-43.776 44.288-14.336 52.224q0 35.328 21.504 59.904t58.88 39.424q-19.968 11.264-31.744 29.44t-11.776 47.36q0 23.552 17.152 49.408t52.48 43.264q-40.448 22.016-63.744 58.112t-23.296 84.224q0 39.424 16.128 71.168t44.8 54.016 67.584 34.048 84.48 11.776zM388.608 114.176q0 13.824-8.704 22.528t-23.296 13.824-34.56 7.424-42.496 3.584-46.848 2.304-47.36 3.584q-17.92-10.752-29.184-25.344t-11.264-33.024q0-12.8 5.888-23.552t19.712-18.432 36.352-12.032 56.32-4.352q34.816 0 58.88 4.608t38.912 13.056 21.248 20.224 6.4 25.6zM254.976 419.328q43.52 0 64.256 22.016t20.736 56.832q0 36.352-20.736 57.088t-64.256 20.736-64-20.736-20.48-57.088q0-34.304 20.736-56.576t63.744-22.272z" />
<glyph unicode="&#x68;" glyph-name="uni68" horiz-adv-x="581" d="M58.368 135.68v763.392h141.312v-287.744q29.696 27.136 65.024 43.776t83.968 16.64q43.008 0 76.288-14.848t56.064-41.472 34.304-63.488 11.52-80.896v-335.36h-140.8v335.36q0 44.032-20.48 68.352t-60.416 24.32q-30.208 0-56.064-13.056t-49.408-35.584v-379.392h-141.312z" />
<glyph unicode="&#x69;" glyph-name="uni69" horiz-adv-x="266" d="M203.776 663.552v-527.872h-141.312v527.872h141.312zM220.672 813.568q0-17.92-7.168-33.28t-19.2-27.136-28.16-18.432-34.56-6.656q-17.408 0-33.024 6.656t-27.392 18.432-18.688 27.136-6.912 33.28 6.912 33.536 18.688 27.392 27.392 18.432 33.024 6.656q18.432 0 34.56-6.656t28.16-18.432 19.2-27.392 7.168-33.536z" />
<glyph unicode="&#x6a;" glyph-name="uni6A" horiz-adv-x="266" d="M203.776 663.552v-538.112q0-35.84-9.216-67.328t-29.952-55.040-54.272-37.376-82.688-13.824q-18.432 0-34.56 2.56t-33.024 7.168l5.12 74.752q1.024 10.24 7.424 14.336t25.344 4.096 31.232 3.328 19.712 11.52 10.496 21.76 3.072 34.048v538.112h141.312zM220.672 813.568q0-17.92-7.168-33.28t-19.2-27.136-28.16-18.432-34.56-6.656q-17.408 0-33.024 6.656t-27.392 18.432-18.688 27.136-6.912 33.28 6.912 33.536 18.688 27.392 27.392 18.432 33.024 6.656q18.432 0 34.56-6.656t28.16-18.432 19.2-27.392 7.168-33.536z" />
<glyph unicode="&#x6b;" glyph-name="uni6B" horiz-adv-x="559" d="M199.68 899.072v-433.152h23.552q13.312 0 20.992 3.84t15.36 14.080l116.736 155.648q8.704 11.776 19.712 17.92t27.904 6.144h129.024l-151.552-192.512q-17.92-24.064-41.472-37.888 11.776-8.192 20.48-18.944t16.896-24.064l163.328-254.464h-126.976q-16.384 0-28.16 5.376t-19.456 19.2l-118.784 194.048q-7.168 12.288-14.848 15.872t-23.040 3.584h-29.696v-238.080h-141.312v763.392h141.312z" />
<glyph unicode="&#x6c;" glyph-name="uni6C" horiz-adv-x="260" d="M200.704 899.072v-763.392h-141.312v763.392h141.312z" />
<glyph unicode="&#x6d;" glyph-name="uni6D" horiz-adv-x="864" d="M58.368 135.68v527.872h87.040q26.624 0 35.328-24.576l8.192-34.304q13.824 14.336 28.416 26.624t31.488 21.248 36.608 14.080 42.752 5.12q48.64 0 80.384-25.856t48.128-68.864q12.8 25.088 31.488 43.264t40.96 29.44 47.104 16.64 49.92 5.376q44.544 0 78.848-13.312t57.6-39.168 35.584-63.232 12.288-84.992v-335.36h-141.312v335.36q0 92.672-79.36 92.672-17.92 0-33.024-5.888t-26.624-17.664-17.92-29.184-6.4-39.936v-335.36h-141.312v335.36q0 50.176-19.712 71.424t-58.112 21.248q-24.576 0-46.336-11.52t-40.704-32v-384.512h-141.312z" />
<glyph unicode="&#x6e;" glyph-name="uni6E" horiz-adv-x="581" d="M58.368 135.68v527.872h87.040q26.624 0 35.328-24.576l8.704-36.864q15.872 15.36 33.024 28.16t36.352 22.016 41.472 14.336 48.384 5.12q43.008 0 76.288-14.848t56.064-41.472 34.304-63.488 11.52-80.896v-335.36h-140.8v335.36q0 44.032-20.48 68.352t-60.416 24.32q-30.208 0-56.064-13.056t-49.408-35.584v-379.392h-141.312z" />
<glyph unicode="&#x6f;" glyph-name="uni6F" horiz-adv-x="591" d="M296.448 671.744q59.392 0 108.032-18.944t83.456-54.016 53.76-85.248 18.944-113.152-18.944-113.408-53.76-85.76-83.456-54.272-108.032-18.944q-59.904 0-108.8 18.944t-83.712 54.272-54.016 85.76-19.2 113.408 19.2 113.152 54.016 85.248 83.712 54.016 108.8 18.944zM296.448 233.984q60.416 0 89.6 41.728t29.184 124.16q0 81.92-29.184 123.648t-89.6 41.728q-61.952 0-91.136-41.728t-29.184-123.648q0-82.432 29.184-124.16t91.136-41.728z" />
<glyph unicode="&#x70;" glyph-name="uni70" horiz-adv-x="585" d="M58.368-34.816v698.368h87.040q26.624 0 35.328-24.576l10.752-44.544q15.872 17.408 33.792 32t38.4 25.088 44.032 16.384 51.2 5.888q42.496 0 78.080-18.176t61.184-52.736 39.936-84.736 14.336-114.688q0-59.392-16.128-109.824t-45.824-87.296-71.424-57.6-92.928-20.736q-43.008 0-72.96 12.8t-53.504 34.816v-210.432h-141.312zM310.272 563.712q-37.376 0-62.72-14.848t-47.872-42.496v-231.424q19.968-23.040 43.264-32.256t49.92-9.216q25.6 0 46.592 9.728t36.096 30.464 23.296 52.992 8.192 76.8q0 44.032-6.912 74.752t-19.456 49.664-30.464 27.392-39.936 8.448z" />
<glyph unicode="&#x71;" glyph-name="uni71" horiz-adv-x="584" d="M525.824 663.552v-698.368h-141.312v232.96q-30.72-31.744-69.12-50.944t-90.112-19.2q-42.496 0-77.824 17.92t-61.184 52.48-40.192 84.736-14.336 114.688q0 58.88 16.128 109.568t45.824 87.552 71.68 57.856 93.184 20.992q24.064 0 44.032-4.352t36.608-12.288 30.72-18.944 26.88-24.832l7.168 25.6q7.68 24.576 34.816 24.576h87.040zM273.92 237.568q37.376 0 62.72 14.592t47.872 42.24v231.936q-19.968 23.040-43.264 32.256t-49.408 9.216q-25.6 0-46.592-9.728t-36.096-30.464-23.296-52.992-8.192-76.8q0-44.032 6.656-74.752t19.2-49.664 30.464-27.392 39.936-8.448z" />
<glyph unicode="&#x72;" glyph-name="uni72" horiz-adv-x="386" d="M58.368 135.68v527.872h83.456q21.504 0 29.696-7.68t11.776-26.624l7.168-52.736q25.088 45.056 58.112 71.168t77.056 26.112q35.84 0 58.368-16.896l-9.216-104.448q-2.56-10.24-7.936-14.080t-14.592-3.84q-8.192 0-23.552 2.304t-28.672 2.304q-38.912 0-61.696-21.248t-38.656-59.136v-323.072h-141.312z" />
<glyph unicode="&#x73;" glyph-name="uni73" horiz-adv-x="453" d="M386.56 555.008q-5.632-8.704-11.52-12.544t-16.128-3.84-20.992 5.12-24.064 11.008-30.464 11.008-39.68 5.12q-34.304 0-53.248-14.080t-18.944-37.12q0-15.872 10.752-26.624t28.416-18.688 40.192-14.848 46.336-15.104 46.336-18.944 40.192-26.88 28.416-38.912 10.752-55.040q0-38.4-14.080-70.912t-41.216-56.064-67.584-36.864-93.184-13.312q-27.136 0-53.76 4.864t-50.688 13.824-45.056 20.736-36.352 25.6l32.768 52.736q5.632 9.216 14.080 14.336t21.76 5.12q12.8 0 23.552-6.4t24.064-13.824 31.488-13.824 45.312-6.4q20.48 0 35.328 4.608t24.064 12.544 13.568 17.92 4.352 20.736q0 17.408-11.008 28.416t-28.672 19.2-40.704 14.848-46.848 14.848-46.592 19.456-40.448 28.416-28.672 42.24-11.008 60.928q0 32.768 12.8 62.208t38.4 51.968 63.744 35.84 88.32 13.312q56.32 0 102.4-18.432t75.776-48.128z" />
<glyph unicode="&#x74;" glyph-name="uni74" horiz-adv-x="387" d="M240.64 127.488q-35.84 0-63.488 10.496t-46.592 29.952-28.672 47.104-9.728 62.464v284.672h-49.664q-11.264 0-19.2 7.168t-7.936 21.504v55.296l84.48 15.36 28.672 136.704q5.632 23.040 31.232 23.040h73.728v-160.768h136.192v-98.304h-136.192v-275.456q0-22.016 10.496-34.816t29.952-12.8q10.24 0 17.408 2.304t12.288 5.12 9.472 5.12 8.96 2.304q6.144 0 10.24-2.816t8.192-9.472l42.496-67.584q-29.184-23.040-66.048-34.816t-76.288-11.776z" />
<glyph unicode="&#x75;" glyph-name="uni75" horiz-adv-x="580" d="M194.56 663.552v-335.36q0-44.032 20.224-68.352t60.16-24.32q29.696 0 55.808 13.056t49.664 35.584v379.392h141.312v-527.872h-87.040q-27.136 0-34.816 24.576l-9.216 36.864q-31.744-31.232-69.376-50.432t-89.344-19.2q-43.008 0-76.544 14.848t-56.064 41.472-34.304 63.488-11.776 80.896v335.36h141.312z" />
<glyph unicode="&#x76;" glyph-name="uni76" horiz-adv-x="546" d="M1.536 663.552h117.248q15.36 0 25.6-7.168t14.336-18.432l88.576-261.12q8.704-26.624 15.36-51.968t11.776-50.944q5.632 25.6 12.544 50.944t16.128 51.968l91.648 261.12q3.584 11.264 13.824 18.432t24.064 7.168h111.616l-207.36-527.872h-128z" />
<glyph unicode="&#x77;" glyph-name="uni77" horiz-adv-x="829" d="M6.144 663.552h112.64q15.36 0 25.856-7.168t14.080-18.432l65.024-261.12q5.632-25.088 10.496-48.64t8.448-46.592q6.144 23.040 13.312 46.592t14.848 48.64l77.312 262.144q3.584 10.752 13.824 17.92t24.064 7.168h62.464q14.848 0 25.344-7.168t14.080-17.92l74.752-262.144q7.168-25.088 13.824-48.64t12.288-47.104q4.096 23.040 8.96 46.848t11.52 48.896l68.096 261.12q3.584 11.264 13.824 18.432t24.064 7.168h107.52l-165.888-527.872h-114.176q-8.704 0-15.616 5.632t-10.496 18.944l-86.016 285.696q-5.12 16.384-9.216 32.256t-7.168 32.256q-3.072-16.384-6.912-32.768t-8.96-32.768l-87.040-284.672q-7.168-24.576-30.72-24.576h-108.544z" />
<glyph unicode="&#x78;" glyph-name="uni78" horiz-adv-x="545" d="M178.688 408.064l-172.032 255.488h135.68q15.36 0 22.528-4.096t12.8-13.312l102.912-167.424q3.072 8.704 7.168 17.408t9.728 17.92l79.36 129.536q12.288 19.968 31.744 19.968h129.536l-172.032-249.344 179.2-278.528h-135.68q-15.36 0-24.832 7.68t-15.104 17.92l-103.936 173.568q-4.608-17.408-13.312-30.72l-89.088-142.848q-6.144-9.728-15.104-17.664t-22.784-7.936h-125.952z" />
<glyph unicode="&#x79;" glyph-name="uni79" horiz-adv-x="545" d="M263.168-6.144q-6.656-14.336-16.128-21.504t-29.952-7.168h-104.96l99.84 212.48-211.968 485.888h123.904q16.896 0 26.112-7.68t13.312-17.92l100.352-252.416q10.752-30.208 18.432-59.904 4.608 15.36 9.984 30.464t11.008 29.952l93.184 251.904q4.096 11.264 14.848 18.432t23.552 7.168h113.152z" />
<glyph unicode="&#x7a;" glyph-name="uni7A" horiz-adv-x="474" d="M443.904 606.208q0-14.848-5.12-28.928t-13.312-22.784l-237.056-312.32h248.832v-106.496h-412.16v58.368q0 8.704 4.864 22.016t13.568 25.088l238.592 315.904h-242.176v106.496h403.968v-57.344z" />
<glyph unicode="&#x7b;" glyph-name="uni7B" horiz-adv-x="315" d="M84.992 342.528q0 30.72-13.312 50.176t-45.056 19.456v79.872q31.744 0 45.056 19.456t13.312 50.176q0 23.552-3.328 46.848t-7.168 47.104-6.912 47.616-3.072 48.384q0 39.936 11.52 72.96t35.84 56.576 61.44 36.352 87.808 12.8h27.136v-61.952q0-7.68-3.328-12.8t-7.936-8.704-9.728-5.12-8.704-1.536h-2.56q-34.304 0-51.456-21.248t-17.152-58.624q0-28.16 2.56-53.76t5.888-49.408 5.888-46.848 2.56-46.592q0-19.456-5.376-37.12t-15.616-32.256-25.344-25.6-34.56-16.64q19.456-5.632 34.56-16.64t25.344-25.6 15.616-32.256 5.376-36.608q0-23.552-2.56-46.848t-5.888-47.104-5.888-49.408-2.56-53.76q0-36.864 17.152-58.368t51.456-21.504h2.56q3.584 0 8.704-1.536t9.728-5.12 7.936-8.704 3.328-12.8v-61.44h-27.136q-50.688 0-87.808 12.8t-61.44 36.096-35.84 56.32-11.52 72.96q0 24.576 3.072 48.384t6.912 47.616 7.168 47.104 3.328 46.848z" />
<glyph unicode="&#x7c;" glyph-name="uni7C" horiz-adv-x="271" d="M80.896 930.304h109.568v-969.728h-109.568v969.728z" />
<glyph unicode="&#x7d;" glyph-name="uni7D" horiz-adv-x="315" d="M230.4 342.528q0-23.552 3.072-46.848t6.912-47.104 7.168-47.616 3.328-48.384q0-39.936-11.52-72.96t-35.84-56.32-61.44-36.096-87.808-12.8h-27.136v61.44q0 7.68 3.072 12.8t7.68 8.704 9.728 5.12 9.216 1.536h2.56q34.304 0 51.456 21.504t17.152 58.368q0 28.16-2.56 53.76t-5.888 49.408-5.888 47.104-2.56 46.848q0 18.944 5.376 36.608t15.616 32.256 25.344 25.6 34.56 16.64q-19.456 5.632-34.56 16.64t-25.344 25.6-15.616 32.256-5.376 37.12q0 23.552 2.56 46.592t5.888 46.848 5.888 49.408 2.56 53.76q0 37.376-17.152 58.624t-51.456 21.248h-2.56q-4.096 0-9.216 1.536t-9.728 5.12-7.68 8.704-3.072 12.8v61.952h27.136q50.688 0 87.808-12.8t61.44-36.352 35.84-56.576 11.52-72.96q0-24.576-3.328-48.384t-7.168-47.616-6.912-47.104-3.072-46.848q0-30.72 13.312-50.176t45.056-19.456v-79.872q-31.744 0-45.056-19.456t-13.312-50.176z" />
<glyph unicode="&#x7e;" glyph-name="uni7E" horiz-adv-x="594" d="M379.392 474.112q27.136 0 41.728 17.152t14.592 49.408h113.664q0-41.472-10.752-74.496t-31.488-56.576-50.688-36.096-67.84-12.544q-27.136 0-51.712 6.656t-46.080 14.336-39.68 14.336-33.536 6.656q-27.136 0-41.728-17.152t-14.592-49.408h-113.664q0 41.472 10.752 74.752t31.488 56.576 50.688 36.096 67.84 12.8q27.136 0 51.712-6.656t46.080-14.592 39.68-14.592 33.536-6.656z" />
<glyph unicode="&#xa1;" glyph-name="uniA1" horiz-adv-x="284" d="M76.8-34.816v271.872q0 46.592 4.864 92.16t13.568 95.232h95.232q8.704-49.664 13.568-95.232t4.864-92.16v-271.872h-132.096zM57.856 590.336q0 17.408 6.4 32.256t17.408 25.856 26.368 17.152 33.28 6.144q17.408 0 32.512-6.144t26.368-17.152 17.92-25.856 6.656-32.256q0-16.896-6.656-32t-17.92-26.112-26.368-17.408-32.512-6.4q-17.92 0-33.28 6.4t-26.368 17.408-17.408 26.112-6.4 32z" />
<glyph unicode="&#xa2;" glyph-name="uniA2" horiz-adv-x="594" d="M267.776 132.096q-45.056 7.168-83.712 28.416t-67.072 55.296-44.544 80.384-16.128 103.68q0 55.808 17.152 103.936t50.176 84.224 81.92 57.856 112.384 24.832l7.168 76.288q1.536 12.8 11.52 23.552t26.368 10.752h51.712l-10.752-116.736q39.936-8.192 72.192-25.344t59.904-43.264l-36.352-48.64q-5.632-7.68-11.52-11.776t-16.64-4.096q-7.168 0-14.848 3.072t-16.896 7.424-20.224 9.216-25.344 8.96l-30.72-327.168q25.088 3.072 41.728 9.984t28.928 14.336 22.016 13.056 20.992 5.632q8.192 0 14.848-3.072t10.752-8.192l38.912-49.664q-18.944-21.504-40.96-36.864t-46.080-25.344-49.408-15.616-50.944-7.68l-6.656-70.656q-1.024-12.8-11.264-23.552t-26.112-10.752h-52.224zM195.584 399.872q0-61.952 21.248-101.888t61.184-56.32l30.208 323.072q-57.856-9.216-85.248-52.224t-27.392-112.64z" />
<glyph unicode="&#xa3;" glyph-name="uniA3" horiz-adv-x="594" d="M16.384 484.864q0 18.944 11.776 32.512t35.328 13.568h49.664v116.224q0 48.128 14.592 91.648t44.288 76.544 74.496 52.224 105.728 19.2q40.96 0 73.984-10.496t58.88-28.672 45.312-43.008 33.28-53.504l-56.32-35.84q-19.456-10.24-37.632-8.96t-33.024 17.664q-9.728 10.752-18.688 19.2t-18.688 14.592-21.248 9.216-25.856 3.072q-48.128 0-71.168-32t-23.040-90.368v-116.736h202.24v-54.784q0-6.656-2.816-13.056t-8.192-11.52-12.544-8.192-15.872-3.072h-162.816v-90.624q0-32.256-12.032-58.112t-33.024-47.872q20.48 4.096 40.96 6.912t41.984 2.816h280.576v-58.368q0-10.24-4.352-20.992t-12.288-19.2-18.944-13.824-24.832-5.376h-489.984v86.528q16.896 3.584 32.768 10.752t27.904 17.92 19.2 26.112 7.168 35.328v128h-96.768v44.544z" />
<glyph unicode="&#xa4;" glyph-name="uniA4" horiz-adv-x="594" d="M105.472 480.256q0 26.112 6.656 49.92t18.432 44.8l-78.848 78.336 71.168 68.608 77.312-76.8q21.504 12.288 45.568 19.2t51.2 6.912q26.112 0 49.664-6.4t44.544-18.176l77.824 77.824 70.656-69.12-77.824-77.312q12.8-21.504 19.712-46.080t6.912-51.712q0-26.112-6.656-49.664t-18.432-44.544l78.848-77.824-71.168-69.12-77.312 76.288q-21.504-12.288-45.824-18.944t-50.944-6.656q-26.112 0-49.408 6.144t-44.288 17.92l-78.336-77.312-70.656 69.12 77.824 76.8q-12.8 21.504-19.712 46.080t-6.912 51.712zM209.408 480.256q0-17.92 6.912-34.304t18.688-28.672 27.904-19.456 34.048-7.168q18.432 0 34.56 7.168t28.16 19.456 18.944 28.672 6.912 34.304q0 18.944-6.912 35.584t-18.944 28.928-28.16 19.2-34.56 6.912q-17.92 0-34.048-6.912t-27.904-19.2-18.688-28.928-6.912-35.584z" />
<glyph unicode="&#xa5;" glyph-name="uniA5" horiz-adv-x="594" d="M67.584 460.8h134.656l-202.24 417.792h117.76q19.456 0 32.256-9.216t18.944-24.576l99.84-235.008q10.24-24.576 17.408-45.824t11.776-41.728q4.608 20.992 11.264 41.984t16.896 45.568l98.816 235.008q5.632 12.8 18.432 23.296t32.256 10.496h118.272l-202.24-417.792h134.656v-76.288h-158.72v-47.616h158.72v-76.288h-158.72v-124.928h-141.312v124.928h-158.72v76.288h158.72v47.616h-158.72v76.288z" />
<glyph unicode="&#xa6;" glyph-name="uniA6" horiz-adv-x="274" d="M82.432 930.304h109.568v-416.768h-109.568v416.768zM82.432 381.952h109.568v-416.768h-109.568v416.768z" />
<glyph unicode="&#xa7;" glyph-name="uniA7" horiz-adv-x="519" d="M423.424 769.024q-5.632-8.704-11.776-12.288t-15.872-3.584q-10.24 0-20.992 4.864t-24.32 11.008-30.72 11.008-39.68 4.864q-39.936 0-60.416-16.128t-20.48-40.192q0-14.848 12.032-26.624t31.744-22.016 44.8-20.224 51.2-21.504 51.2-25.344 44.8-32 31.744-41.472 12.032-54.016q0-40.96-18.944-74.752t-60.928-55.296q23.040-18.432 36.864-43.52t13.824-59.904q0-38.4-14.080-70.912t-41.472-56.064-67.84-36.864-93.184-13.312q-27.136 0-53.76 4.864t-50.688 13.824-45.056 20.736-36.352 25.6l32.768 52.736q5.632 9.216 14.336 14.336t22.016 5.12q12.8 0 23.552-6.4t24.576-13.824 33.024-13.824 48.384-6.4q38.4 0 59.392 15.104t20.992 42.752q0 19.968-12.288 33.792t-32.256 24.832-45.312 20.224-51.968 19.456-51.968 23.296-45.312 31.232-32.256 42.752-12.288 58.88q0 40.448 20.48 72.448t62.976 51.456q-23.040 19.968-37.376 47.616t-14.336 67.072q0 32.768 12.8 62.464t38.4 52.224 63.488 35.84 88.576 13.312q55.808 0 102.144-18.688t75.52-48.384zM167.424 506.88q0-19.968 13.824-34.56t35.84-26.368 49.664-22.528 55.808-23.552q17.92 10.24 25.6 23.808t7.68 29.952q0 20.48-13.312 35.072t-35.072 26.368-48.896 22.528-54.784 23.040q-19.456-10.752-27.904-23.808t-8.448-29.952z" />
<glyph unicode="&#xa8;" glyph-name="uniA8" d="M174.592 798.208q0-15.36-6.144-28.672t-16.64-23.296-24.576-15.616-29.952-5.632q-14.848 0-28.416 5.632t-23.808 15.616-16.384 23.296-6.144 28.672 6.144 29.184 16.384 24.32 23.808 16.384 28.416 5.888q15.872 0 29.952-5.888t24.576-16.384 16.64-24.32 6.144-29.184zM387.072 798.208q0-15.36-6.144-28.672t-16.384-23.296-24.32-15.616-29.952-5.632q-15.36 0-29.184 5.632t-24.064 15.616-16.128 23.296-5.888 28.672 5.888 29.184 16.128 24.32 24.064 16.384 29.184 5.888q15.872 0 29.952-5.888t24.32-16.384 16.384-24.32 6.144-29.184z" />
<glyph unicode="&#xa9;" glyph-name="uniA9" horiz-adv-x="841" d="M529.92 404.992q5.632 0 10.496-2.816t8.96-6.912l46.592-48.64q-28.16-37.376-72.448-56.832t-103.168-19.456q-51.712 0-93.184 18.432t-70.656 50.688-45.056 75.776-15.872 93.696q0 52.224 18.176 95.744t49.92 75.264 74.752 49.408 92.672 17.664q57.856 0 99.328-19.712t68.608-49.92l-36.864-50.688q-3.584-4.096-9.472-8.704t-14.592-4.608q-9.728 0-17.152 4.864t-17.664 10.752-25.344 10.752-39.68 4.864q-28.672 0-50.432-9.472t-36.864-27.136-22.784-42.752-7.68-56.32q0-33.28 7.936-58.368t22.272-42.496 34.048-26.112 42.752-8.704q24.576 0 39.68 4.352t25.6 9.728 18.432 10.496 18.688 7.168zM40.96 507.392q0 52.224 13.568 100.864t38.144 90.624 59.392 76.8 76.8 59.392 90.368 38.144 100.608 13.568 100.864-13.568 90.88-38.144 76.8-59.392 59.392-76.8 38.4-90.624 13.568-100.864-13.568-100.608-38.4-90.368-59.392-76.8-76.8-59.392-90.88-38.144-100.864-13.568-100.608 13.568-90.368 38.144-76.8 59.392-59.392 76.8-38.144 90.368-13.568 100.608zM117.248 507.392q0-66.048 23.296-123.136t64-99.328 96-66.56 119.296-24.32 119.808 24.32 97.024 66.56 65.024 99.328 23.808 123.136q0 44.032-10.752 84.48t-30.464 75.52-47.36 63.744-61.696 49.152-73.472 31.488-81.92 11.008q-64 0-119.296-24.576t-96-67.072-64-100.096-23.296-123.648z" />
<glyph unicode="&#xaa;" glyph-name="uniAA" horiz-adv-x="376" d="M274.944 566.272q-13.824 0-20.736 4.096t-13.056 15.872l-6.656 16.384q-11.776-10.24-22.784-17.92t-22.784-12.544-25.088-7.424-29.696-2.56q-44.032 0-70.4 22.784t-26.368 65.792q0 16.384 8.192 34.048t29.44 32.256 57.344 24.576 91.392 11.52v10.752q0 26.112-11.008 36.096t-31.488 9.984q-16.384 0-26.88-3.328t-18.944-7.68-16.64-7.68-19.456-3.328q-10.24 0-17.152 6.144t-12.032 12.8l-17.408 31.744q29.184 26.624 64.512 38.656t76.8 12.032q29.696 0 53.504-9.472t40.448-26.368 25.6-39.936 8.96-49.664v-197.632h-47.616zM166.912 630.272q16.896 0 29.952 5.632t26.88 18.944v37.376q-27.136-1.024-44.544-4.096t-27.392-8.192-13.824-11.52-3.84-13.056q0-14.336 8.192-19.712t24.576-5.376z" />
<glyph unicode="&#xab;" glyph-name="uniAB" horiz-adv-x="478" d="M44.032 403.456v17.92l132.608 204.288 46.080-20.992q17.92-8.704 20.736-23.040t-5.888-30.72l-67.072-115.712q-7.68-13.312-17.408-22.528 8.192-7.68 17.408-22.528l67.072-116.224q8.704-16.384 5.888-30.72t-20.736-22.528l-46.080-21.504zM219.648 403.456v17.92l132.608 204.288 46.080-20.992q17.92-8.704 20.736-23.040t-5.888-30.72l-67.072-115.712q-7.68-13.312-17.408-22.528 8.192-7.68 17.408-22.528l67.072-116.224q8.704-16.384 5.888-30.72t-20.736-22.528l-46.080-21.504z" />
<glyph unicode="&#xac;" glyph-name="uniAC" horiz-adv-x="594" d="M64.512 530.944h459.264v-246.784h-119.296v143.872h-339.968v102.912z" />
<glyph unicode="&#xad;" glyph-name="uniAD" horiz-adv-x="382" d="M55.808 503.808h270.336v-115.712h-270.336v115.712z" />
<glyph unicode="&#xae;" glyph-name="uniAE" horiz-adv-x="841" d="M40.96 507.392q0 52.224 13.568 100.864t38.144 90.624 59.392 76.8 76.8 59.392 90.368 38.144 100.608 13.568 100.864-13.568 90.88-38.144 76.8-59.392 59.392-76.8 38.4-90.624 13.568-100.864-13.568-100.608-38.4-90.368-59.392-76.8-76.8-59.392-90.88-38.144-100.864-13.568-100.608 13.568-90.368 38.144-76.8 59.392-59.392 76.8-38.144 90.368-13.568 100.608zM117.248 507.392q0-66.048 23.296-123.136t64-99.328 96-66.56 119.296-24.32q61.952 0 115.712 22.272t94.72 62.208h-110.080q-25.088 0-35.328 17.92l-61.952 127.488q-5.12 7.68-11.52 11.52t-19.2 3.84h-22.528v-160.768h-122.368v460.288h171.52q98.816 0 144.384-34.816t45.568-99.84q0-44.544-22.272-79.104t-70.4-50.944q13.312-7.168 22.272-17.92t16.64-25.6l79.872-147.456q42.496 42.496 66.56 99.84t24.064 124.416q0 44.032-10.752 84.48t-30.464 75.52-47.36 63.744-61.696 49.152-73.472 31.488-81.92 11.008q-64 0-119.296-24.576t-96-67.072-64-100.096-23.296-123.648zM369.664 524.8h39.424q25.6 0 41.216 4.096t24.064 12.288 11.264 19.968 2.816 27.136q0 14.848-2.56 25.856t-9.984 18.432-21.248 11.264-35.84 3.84h-49.152v-122.88z" />
<glyph unicode="&#xaf;" glyph-name="uniAF" d="M49.152 842.752h311.296v-88.064h-311.296v88.064z" />
<glyph unicode="&#xb0;" glyph-name="uniB0" horiz-adv-x="425" d="M31.232 709.632q0 36.864 13.824 69.376t38.4 56.832 57.6 38.144 71.424 13.824 71.68-13.824 57.6-38.144 38.4-56.832 14.080-69.376q0-36.352-14.080-68.352t-38.4-56.32-57.6-38.4-71.68-14.080-71.424 14.080-57.6 38.4-38.4 56.32-13.824 68.352zM129.024 709.12q0-18.432 6.144-34.048t17.408-27.136 26.368-18.176 33.536-6.656q17.92 0 33.28 6.656t26.368 18.176 17.152 27.136 6.144 34.048-6.144 34.304-17.152 27.648-26.368 18.432-33.28 6.656q-18.432 0-33.536-6.656t-26.368-18.432-17.408-27.648-6.144-34.304z" />
<glyph unicode="&#xb1;" glyph-name="uniB1" horiz-adv-x="594" d="M353.792 778.24v-177.152h194.56v-102.912h-194.56v-169.472h-114.688v169.472h-193.536v102.912h193.536v177.152h114.688zM45.568 279.552h502.784v-102.912h-502.784v102.912z" />
<glyph unicode="&#xb2;" glyph-name="uniB2" horiz-adv-x="342" d="M174.592 982.016q31.232 0 55.296-8.96t40.192-24.32 24.32-35.84 8.192-43.52q0-20.992-6.4-38.4t-16.896-33.28-24.32-30.72-28.16-30.208l-59.392-60.416q15.36 4.608 30.208 7.168t27.648 2.56h51.712q16.384 0 25.344-8.448t8.96-22.784v-58.368h-284.16v32.256q0 9.216 3.84 19.968t12.544 19.456l104.448 102.4q11.264 10.752 20.736 23.040t16.64 24.832 11.264 24.576 4.096 22.784q0 15.872-7.936 26.368t-23.808 10.496q-13.824 0-22.528-6.912t-14.848-20.736q-7.68-12.288-17.408-17.408t-29.696-1.536l-56.32 8.704q4.608 30.208 16.896 52.224t31.232 36.608 44.032 21.504 54.272 6.912z" />
<glyph unicode="&#xb3;" glyph-name="uniB3" horiz-adv-x="342" d="M175.616 982.016q30.208 0 53.504-8.704t39.168-22.784 24.064-32 8.192-36.352q0-32.256-12.544-54.272t-41.216-35.328q29.696-10.24 45.056-28.416t15.36-47.872q0-32.256-12.032-55.808t-31.488-38.656-44.032-22.272-49.152-7.168q-27.136 0-49.408 4.864t-39.936 16.896-31.232 32-23.808 50.176l43.52 17.92q16.896 6.656 31.488 3.328t20.224-14.592q6.144-11.776 16.896-20.224t26.624-8.448q19.456 0 30.208 11.008t10.752 27.392q0 13.312-3.328 22.016t-11.264 13.568-21.504 6.656-34.048 1.792v65.024q20.992 0 34.304 2.816t20.736 8.192 10.24 13.312 2.816 18.176q0 16.384-7.68 26.368t-26.112 9.984q-15.36 0-23.808-6.4t-13.568-18.176q-7.68-14.336-16.384-18.944t-28.672-1.024l-52.224 8.704q4.608 30.208 16.896 52.224t30.72 36.608 41.984 21.504 50.688 6.912z" />
<glyph unicode="&#xb4;" glyph-name="uniB4" d="M393.728 886.784l-129.536-134.144q-10.24-10.752-20.224-15.104t-25.856-4.352h-84.992l71.68 124.928q7.68 14.336 18.688 21.504t33.536 7.168h136.704z" />
<glyph unicode="&#xb5;" glyph-name="uniB5" horiz-adv-x="680" d="M222.208 663.552v-309.248q0-44.032 20.224-70.4t60.16-26.368q38.4 0 64.256 20.736t41.728 58.112v327.168h141.312v-367.616q0-32.768 14.848-48.384t40.96-15.616h39.936v-54.784q0-8.704-5.888-17.152t-17.152-15.104-27.136-10.752-35.84-4.096q-21.504 0-41.728 6.144t-37.12 18.688-29.952 31.488-20.224 45.056q-26.624-41.472-60.16-64t-77.056-22.528q-55.296 0-90.112 27.136 5.632-22.016 7.68-45.824t2.048-44.8v-116.224h-70.144q-29.696 0-45.824 14.848t-16.128 43.008v640.512h141.312z" />
<glyph unicode="&#xb6;" glyph-name="uniB6" horiz-adv-x="770" d="M733.184 878.592v-116.224h-108.544v-735.232h-123.392v735.232h-111.104v-735.232h-122.88v425.472q-53.248 0-96.768 16.896t-74.24 45.824-47.36 67.584-16.64 81.664q0 47.104 16.64 86.528t47.36 67.84 74.24 44.032 96.768 15.616h465.92z" />
<glyph unicode="&#xb7;" glyph-name="uniB7" horiz-adv-x="287" d="M38.4 440.32q0 21.504 8.192 40.448t22.528 33.024 33.536 22.016 40.704 7.936q22.016 0 41.216-7.936t33.536-22.016 22.528-33.024 8.192-40.448q0-20.992-8.192-39.68t-22.528-32.512-33.536-22.016-41.216-8.192q-21.504 0-40.704 8.192t-33.536 22.016-22.528 32.512-8.192 39.68z" />
<glyph unicode="&#xb8;" glyph-name="uniB8" d="M143.36 18.944q7.168 0 15.36-2.816t21.504-2.816q15.36 0 22.528 5.632t7.168 13.312q0 12.8-17.152 18.688t-55.040 11.52l31.744 93.184h78.848l-13.312-48.64q24.064-5.632 40.448-13.568t26.368-17.664 14.336-21.504 4.352-24.576q0-17.92-9.472-32t-26.624-23.808-41.216-15.104-53.248-5.376q-20.992 0-39.168 2.304t-36.096 7.424l12.8 43.52q3.072 12.288 15.872 12.288z" />
<glyph unicode="&#xb9;" glyph-name="uniB9" horiz-adv-x="342" d="M72.192 659.968h68.608v169.984l2.56 26.624-32.768-25.6q-7.168-5.12-13.824-6.144t-12.544 0.256-10.496 4.352-7.168 6.144l-31.232 41.472 121.344 100.864h84.992v-317.952h55.808v-63.488h-225.28v63.488z" />
<glyph unicode="&#xba;" glyph-name="uniBA" d="M205.824 888.32q37.376 0 68.864-11.264t54.016-32.256 35.072-51.2 12.544-68.096q0-38.4-12.544-69.12t-35.072-51.968-54.016-32.768-68.864-11.52q-38.4 0-70.144 11.52t-54.528 32.768-35.328 51.968-12.544 69.12q0 37.888 12.544 68.096t35.328 51.2 54.528 32.256 70.144 11.264zM205.824 641.024q30.72 0 45.312 19.968t14.592 63.488q0 44.032-14.592 63.488t-45.312 19.456q-32.768 0-47.616-19.456t-14.848-63.488q0-43.52 14.848-63.488t47.616-19.968z" />
<glyph unicode="&#xbb;" glyph-name="uniBB" horiz-adv-x="478" d="M258.048 421.376v-17.92l-132.608-204.288-46.592 21.504q-17.92 8.192-20.736 22.528t6.4 30.72l66.56 116.224q7.68 13.312 17.408 22.528-9.728 9.216-17.408 22.528l-66.56 115.712q-9.216 16.384-6.4 30.72t20.736 23.040l46.592 20.992zM433.664 421.376v-17.92l-132.608-204.288-46.592 21.504q-17.92 8.192-20.736 22.528t6.4 30.72l66.56 116.224q7.68 13.312 17.408 22.528-9.728 9.216-17.408 22.528l-66.56 115.712q-9.216 16.384-6.4 30.72t20.736 23.040l46.592 20.992z" />
<glyph unicode="&#xbc;" glyph-name="uniBC" horiz-adv-x="765" d="M239.104 175.104q-14.848-23.040-31.488-31.232t-38.656-8.192h-59.904l430.080 697.344q13.824 21.504 31.232 33.536t41.984 12.032h60.416zM71.68 561.152h68.608v169.984l2.56 26.624-32.768-25.6q-7.168-5.12-13.824-6.144t-12.544 0.256-10.496 4.352-7.168 6.144l-31.232 41.472 121.344 100.864h84.992v-317.952h55.808v-63.488h-225.28v63.488zM681.984 283.136h45.056v-49.664q0-7.168-5.12-12.544t-13.824-5.376h-26.112v-79.872h-83.968v79.872h-144.384q-13.312 0-20.992 5.888t-9.728 14.592l-8.192 42.496 169.984 238.592h97.28v-233.984zM598.016 355.328q0 12.8 0.768 27.648t2.816 31.232l-95.232-131.072h91.648v72.192z" />
<glyph unicode="&#xbd;" glyph-name="uniBD" horiz-adv-x="757" d="M219.136 175.104q-14.848-23.040-31.488-31.232t-38.656-8.192h-59.904l430.080 697.344q13.824 21.504 31.232 33.536t41.984 12.032h60.416zM72.192 561.152h68.608v169.984l2.56 26.624-32.768-25.6q-7.168-5.12-13.824-6.144t-12.544 0.256-10.496 4.352-7.168 6.144l-31.232 41.472 121.344 100.864h84.992v-317.952h55.808v-63.488h-225.28v63.488zM579.584 521.216q31.232 0 55.296-8.96t40.192-24.32 24.32-35.84 8.192-43.52q0-20.992-6.4-38.4t-16.896-33.28-24.32-30.72-28.16-30.208l-59.392-60.416q15.36 4.608 30.208 7.168t27.648 2.56h51.712q16.384 0 25.344-8.448t8.96-22.784v-58.368h-284.16v32.256q0 9.216 3.84 19.968t12.544 19.456l104.448 102.4q11.264 10.752 20.736 23.040t16.64 24.832 11.264 24.576 4.096 22.784q0 15.872-7.936 26.368t-23.808 10.496q-13.824 0-22.528-6.912t-14.848-20.736q-7.68-12.288-17.408-17.408t-29.696-1.536l-56.32 8.704q4.608 30.208 16.896 52.224t31.232 36.608 44.032 21.504 54.272 6.912z" />
<glyph unicode="&#xbe;" glyph-name="uniBE" horiz-adv-x="771" d="M247.296 175.104q-14.848-23.040-31.488-31.232t-38.656-8.192h-59.904l430.080 697.344q13.824 21.504 31.232 33.536t41.984 12.032h60.416zM186.368 883.2q30.208 0 53.504-8.704t39.168-22.784 24.064-32 8.192-36.352q0-32.256-12.544-54.272t-41.216-35.328q29.696-10.24 45.056-28.416t15.36-47.872q0-32.256-12.032-55.808t-31.488-38.656-44.032-22.272-49.152-7.168q-27.136 0-49.408 4.864t-39.936 16.896-31.232 32-23.808 50.176l43.52 17.92q16.896 6.656 31.488 3.328t20.224-14.592q6.144-11.776 16.896-20.224t26.624-8.448q19.456 0 30.208 11.008t10.752 27.392q0 13.312-3.328 22.016t-11.264 13.568-21.504 6.656-34.048 1.792v65.024q20.992 0 34.304 2.816t20.736 8.192 10.24 13.312 2.816 18.176q0 16.384-7.68 26.368t-26.112 9.984q-15.36 0-23.808-6.4t-13.568-18.176q-7.68-14.336-16.384-18.944t-28.672-1.024l-52.224 8.704q4.608 30.208 16.896 52.224t30.72 36.608 41.984 21.504 50.688 6.912zM689.152 283.136h45.056v-49.664q0-7.168-5.12-12.544t-13.824-5.376h-26.112v-79.872h-83.968v79.872h-144.384q-13.312 0-20.992 5.888t-9.728 14.592l-8.192 42.496 169.984 238.592h97.28v-233.984zM605.184 355.328q0 12.8 0.768 27.648t2.816 31.232l-95.232-131.072h91.648v72.192z" />
<glyph unicode="&#xbf;" glyph-name="uniBF" horiz-adv-x="473" d="M442.368 33.28q-18.432-15.872-39.68-29.696t-46.336-24.064-53.76-16.128-61.952-5.888q-46.080 0-83.712 12.032t-64 34.304-40.96 54.528-14.592 72.704q0 38.912 11.008 66.048t27.648 46.080 36.608 32 37.888 24.576 30.976 23.296 16.128 28.16l12.8 73.216h96.768l9.728-82.944q3.072-26.624-6.4-44.288t-26.112-30.976-36.864-24.064-37.632-23.808-29.44-30.72-12.032-44.288q0-33.792 23.296-54.016t61.696-20.224q27.648 0 47.104 6.144t33.024 13.568 23.296 13.568 18.432 6.144q19.968 0 29.696-16.896zM178.176 589.824q0 16.896 6.4 32t17.664 26.112 26.368 17.408 33.024 6.4q17.408 0 32.768-6.4t26.624-17.408 17.664-26.112 6.4-32q0-17.408-6.4-32.256t-17.664-25.856-26.624-17.152-32.768-6.144q-17.92 0-33.024 6.144t-26.368 17.152-17.664 25.856-6.4 32.256z" />
<glyph unicode="&#xc0;" glyph-name="uniC0" horiz-adv-x="719" d="M728.064 135.68h-119.296q-19.968 0-32.512 9.472t-18.688 24.32l-50.176 141.824h-295.936l-50.176-141.824q-5.12-12.8-17.92-23.296t-32.256-10.496h-120.32l290.304 742.912h157.184zM248.832 417.792h221.184l-80.384 227.328q-7.168 17.92-15.104 41.984t-15.616 51.712q-7.168-28.16-14.848-52.48t-14.848-42.24zM278.528 1090.048q10.752 0 18.688-0.512t14.336-2.816 12.032-6.656 11.776-12.032l109.056-138.752h-102.4q-8.192 0-14.336 0.256t-11.264 1.536-9.984 4.096-10.496 7.424l-164.864 147.456h147.456z" />
<glyph unicode="&#xc1;" glyph-name="uniC1" horiz-adv-x="719" d="M728.064 135.68h-119.296q-19.968 0-32.512 9.472t-18.688 24.32l-50.176 141.824h-295.936l-50.176-141.824q-5.12-12.8-17.92-23.296t-32.256-10.496h-120.32l290.304 742.912h157.184zM248.832 417.792h221.184l-80.384 227.328q-7.168 17.92-15.104 41.984t-15.616 51.712q-7.168-28.16-14.848-52.48t-14.848-42.24zM583.168 1090.048l-165.376-146.432q-5.632-4.608-10.752-7.424t-10.496-4.352-11.776-2.048-14.080-0.512h-102.4l102.4 138.752q5.632 7.68 11.008 12.032t11.776 6.656 14.592 2.816 18.944 0.512h156.16z" />
<glyph unicode="&#xc2;" glyph-name="uniC2" horiz-adv-x="719" d="M728.064 135.68h-119.296q-19.968 0-32.512 9.472t-18.688 24.32l-50.176 141.824h-295.936l-50.176-141.824q-5.12-12.8-17.92-23.296t-32.256-10.496h-120.32l290.304 742.912h157.184zM248.832 417.792h221.184l-80.384 227.328q-7.168 17.92-15.104 41.984t-15.616 51.712q-7.168-28.16-14.848-52.48t-14.848-42.24zM549.376 929.28h-102.4q-8.192 0-20.224 3.072t-24.832 17.92l-34.816 48.128-8.192 11.776-8.192-11.776-34.816-48.128q-12.8-14.848-24.832-17.92t-20.224-3.072h-97.792l123.904 141.312h128z" />
<glyph unicode="&#xc3;" glyph-name="uniC3" horiz-adv-x="719" d="M728.064 135.68h-119.296q-19.968 0-32.512 9.472t-18.688 24.32l-50.176 141.824h-295.936l-50.176-141.824q-5.12-12.8-17.92-23.296t-32.256-10.496h-120.32l290.304 742.912h157.184zM248.832 417.792h221.184l-80.384 227.328q-7.168 17.92-15.104 41.984t-15.616 51.712q-7.168-28.16-14.848-52.48t-14.848-42.24zM422.4 1012.736q11.264 0 19.456 4.352t13.312 11.264 7.68 15.104 2.56 15.872h85.504q0-26.624-7.168-51.2t-21.248-43.52-34.816-30.464-47.872-11.52-46.848 7.936-35.328 17.408-28.672 17.408-26.88 7.936q-11.264 0-19.2-4.608t-12.8-11.776-7.424-15.36-2.56-15.872h-86.528q0 26.624 7.424 51.456t21.504 44.032 34.816 30.72 47.872 11.52 47.104-7.936 35.328-17.408 28.416-17.408 26.368-7.936z" />
<glyph unicode="&#xc4;" glyph-name="uniC4" horiz-adv-x="719" d="M728.064 135.68h-119.296q-19.968 0-32.512 9.472t-18.688 24.32l-50.176 141.824h-295.936l-50.176-141.824q-5.12-12.8-17.92-23.296t-32.256-10.496h-120.32l290.304 742.912h157.184zM248.832 417.792h221.184l-80.384 227.328q-7.168 17.92-15.104 41.984t-15.616 51.712q-7.168-28.16-14.848-52.48t-14.848-42.24zM317.952 989.184q0-14.848-5.888-27.904t-16.384-22.528-24.32-15.104-29.184-5.632q-14.336 0-27.136 5.632t-22.784 15.104-15.872 22.528-5.888 27.904 5.888 28.416 15.872 23.552 22.784 15.872 27.136 5.888q15.36 0 29.184-5.888t24.32-15.872 16.384-23.552 5.888-28.416zM547.328 989.184q0-14.848-5.888-27.904t-15.872-22.528-23.296-15.104-28.672-5.632-28.672 5.632-23.296 15.104-15.872 22.528-5.888 27.904 5.888 28.416 15.872 23.552 23.296 15.872 28.672 5.888 28.672-5.888 23.296-15.872 15.872-23.552 5.888-28.416z" />
<glyph unicode="&#xc5;" glyph-name="uniC5" horiz-adv-x="719" d="M728.064 135.68h-119.296q-19.968 0-32.512 9.472t-18.688 24.32l-50.176 141.824h-295.936l-50.176-141.824q-5.12-12.8-17.92-23.296t-32.256-10.496h-120.32l290.304 742.912h157.184zM248.832 417.792h221.184l-80.384 227.328q-7.168 17.92-15.104 41.984t-15.616 51.712q-7.168-28.16-14.848-52.48t-14.848-42.24zM249.344 1011.2q0 22.528 8.96 41.216t24.064 32 34.816 20.48 41.216 7.168q22.528 0 43.008-7.168t35.84-20.48 24.32-32 8.96-41.216q0-22.016-8.96-40.192t-24.32-30.976-35.84-19.968-43.008-7.168q-21.504 0-41.216 7.168t-34.816 19.968-24.064 30.976-8.96 40.192zM316.416 1011.2q0-19.456 11.264-31.488t32.768-12.032q19.456 0 31.232 12.032t11.776 31.488q0 20.48-11.776 32.512t-31.232 12.032q-21.504 0-32.768-12.032t-11.264-32.512z" />
<glyph unicode="&#xc6;" glyph-name="uniC6" horiz-adv-x="956" d="M358.912 878.592h560.128v-120.32h-344.064l23.552-190.976h249.856v-116.224h-235.52l23.552-195.072h282.624v-120.32h-413.696l-21.504 175.616h-257.536l-65.536-141.824q-7.168-14.848-22.016-24.32t-35.328-9.472h-116.736zM275.456 417.792h195.584l-41.984 347.136q-8.704-28.16-18.432-52.48t-19.456-44.8z" />
<glyph unicode="&#xc7;" glyph-name="uniC7" horiz-adv-x="675" d="M335.872 18.944q7.168 0 15.36-2.816t21.504-2.816q15.36 0 22.528 5.632t7.168 13.312q0 12.8-17.152 18.688t-55.040 11.52l22.528 67.072q-73.728 7.168-132.608 38.144t-100.096 80.896-62.976 115.968-21.76 142.848q0 55.296 12.032 105.216t35.072 91.904 55.552 75.776 73.472 57.6 89.344 36.352 103.168 12.544q40.96 0 77.568-7.168t68.352-19.968 58.624-30.976 48.384-39.68l-51.712-70.656q-4.608-6.656-11.776-11.776t-19.456-5.12-24.832 8.704-30.72 19.456-45.568 19.456-69.376 8.704q-46.592 0-85.504-16.896t-66.816-48.896-43.264-78.592-15.36-105.984q0-59.904 16.64-106.752t45.568-79.104 67.584-48.896 82.688-16.64q26.112 0 47.36 2.56t39.424 8.704 34.304 15.872 32.512 24.576q5.632 4.608 11.776 7.68t13.312 3.072q12.8 0 21.504-9.216l60.928-65.024q-39.936-51.2-97.536-80.384t-135.424-34.816l-5.632-22.016q24.064-5.632 40.448-13.568t26.368-17.664 14.336-21.504 4.352-24.576q0-17.92-9.472-32t-26.624-23.808-41.216-15.104-53.248-5.376q-20.992 0-39.168 2.304t-36.096 7.424l12.8 43.52q3.072 12.288 15.872 12.288z" />
<glyph unicode="&#xc8;" glyph-name="uniC8" horiz-adv-x="588" d="M550.912 878.592v-120.32h-318.464v-190.976h247.808v-116.224h-247.808v-195.072h318.464v-120.32h-473.088v742.912h473.088zM241.664 1090.048q10.752 0 18.688-0.512t14.336-2.816 12.032-6.656 11.776-12.032l109.056-138.752h-102.4q-8.192 0-14.336 0.256t-11.264 1.536-9.984 4.096-10.496 7.424l-164.864 147.456h147.456z" />
<glyph unicode="&#xc9;" glyph-name="uniC9" horiz-adv-x="588" d="M550.912 878.592v-120.32h-318.464v-190.976h247.808v-116.224h-247.808v-195.072h318.464v-120.32h-473.088v742.912h473.088zM546.304 1090.048l-165.376-146.432q-5.632-4.608-10.752-7.424t-10.496-4.352-11.776-2.048-14.080-0.512h-102.4l102.4 138.752q5.632 7.68 11.008 12.032t11.776 6.656 14.592 2.816 18.944 0.512h156.16z" />
<glyph unicode="&#xca;" glyph-name="uniCA" horiz-adv-x="588" d="M550.912 878.592v-120.32h-318.464v-190.976h247.808v-116.224h-247.808v-195.072h318.464v-120.32h-473.088v742.912h473.088zM513.024 929.28h-102.4q-8.192 0-20.224 3.072t-24.832 17.92l-34.816 48.128-8.192 11.776-8.192-11.776-34.816-48.128q-12.8-14.848-24.832-17.92t-20.224-3.072h-97.792l123.904 141.312h128z" />
<glyph unicode="&#xcb;" glyph-name="uniCB" horiz-adv-x="588" d="M550.912 878.592v-120.32h-318.464v-190.976h247.808v-116.224h-247.808v-195.072h318.464v-120.32h-473.088v742.912h473.088zM281.6 989.184q0-14.848-5.888-27.904t-16.384-22.528-24.32-15.104-29.184-5.632q-14.336 0-27.136 5.632t-22.784 15.104-15.872 22.528-5.888 27.904 5.888 28.416 15.872 23.552 22.784 15.872 27.136 5.888q15.36 0 29.184-5.888t24.32-15.872 16.384-23.552 5.888-28.416zM510.976 989.184q0-14.848-5.888-27.904t-15.872-22.528-23.296-15.104-28.672-5.632-28.672 5.632-23.296 15.104-15.872 22.528-5.888 27.904 5.888 28.416 15.872 23.552 23.296 15.872 28.672 5.888 28.672-5.888 23.296-15.872 15.872-23.552 5.888-28.416z" />
<glyph unicode="&#xcc;" glyph-name="uniCC" horiz-adv-x="310" d="M232.448 135.68h-154.624v742.912h154.624v-742.912zM76.288 1090.048q10.752 0 18.688-0.512t14.336-2.816 12.032-6.656 11.776-12.032l109.056-138.752h-102.4q-8.192 0-14.336 0.256t-11.264 1.536-9.984 4.096-10.496 7.424l-164.864 147.456h147.456z" />
<glyph unicode="&#xcd;" glyph-name="uniCD" horiz-adv-x="310" d="M232.448 135.68h-154.624v742.912h154.624v-742.912zM380.928 1090.048l-165.376-146.432q-5.632-4.608-10.752-7.424t-10.496-4.352-11.776-2.048-14.080-0.512h-102.4l102.4 138.752q5.632 7.68 11.008 12.032t11.776 6.656 14.592 2.816 18.944 0.512h156.16z" />
<glyph unicode="&#xce;" glyph-name="uniCE" horiz-adv-x="310" d="M232.448 135.68h-154.624v742.912h154.624v-742.912zM347.648 929.28h-102.4q-8.192 0-20.224 3.072t-24.832 17.92l-34.816 48.128-8.192 11.776-8.192-11.776-34.816-48.128q-12.8-14.848-24.832-17.92t-20.224-3.072h-97.792l123.904 141.312h128z" />
<glyph unicode="&#xcf;" glyph-name="uniCF" horiz-adv-x="310" d="M232.448 135.68h-154.624v742.912h154.624v-742.912zM116.224 989.184q0-14.848-5.888-27.904t-16.384-22.528-24.32-15.104-29.184-5.632q-14.336 0-27.136 5.632t-22.784 15.104-15.872 22.528-5.888 27.904 5.888 28.416 15.872 23.552 22.784 15.872 27.136 5.888q15.36 0 29.184-5.888t24.32-15.872 16.384-23.552 5.888-28.416zM345.6 989.184q0-14.848-5.888-27.904t-15.872-22.528-23.296-15.104-28.672-5.632-28.672 5.632-23.296 15.104-15.872 22.528-5.888 27.904 5.888 28.416 15.872 23.552 23.296 15.872 28.672 5.888 28.672-5.888 23.296-15.872 15.872-23.552 5.888-28.416z" />
<glyph unicode="&#xd0;" glyph-name="uniD0" horiz-adv-x="789" d="M-1.024 551.936h89.088v326.656h285.696q85.504 0 155.648-27.648t120.064-77.056 77.312-117.504 27.392-148.992q0-81.408-27.392-149.76t-77.312-117.504-120.064-76.8-155.648-27.648h-285.696v330.752h-89.088v85.504zM596.48 507.392q0 58.368-15.36 104.96t-44.032 78.848-69.888 49.664-93.44 17.408h-131.072v-206.336h131.072v-85.504h-131.072v-210.432h131.072q52.224 0 93.44 17.152t69.888 49.664 44.032 79.104 15.36 105.472z" />
<glyph unicode="&#xd1;" glyph-name="uniD1" horiz-adv-x="792" d="M158.72 878.592q9.728 0 16.64-0.768t12.544-3.584 10.752-7.424 11.264-12.288l372.736-473.6q-2.048 19.456-3.072 37.888t-1.024 34.816v424.96h135.68v-742.912h-79.36q-17.92 0-30.208 5.888t-24.064 20.224l-370.176 470.528q1.536-17.92 2.304-35.072t0.768-32v-429.568h-135.68v742.912h80.896zM462.336 1012.736q11.264 0 19.456 4.352t13.312 11.264 7.68 15.104 2.56 15.872h85.504q0-26.624-7.168-51.2t-21.248-43.52-34.816-30.464-47.872-11.52-46.848 7.936-35.328 17.408-28.672 17.408-26.88 7.936q-11.264 0-19.2-4.608t-12.8-11.776-7.424-15.36-2.56-15.872h-86.528q0 26.624 7.424 51.456t21.504 44.032 34.816 30.72 47.872 11.52 47.104-7.936 35.328-17.408 28.416-17.408 26.368-7.936z" />
<glyph unicode="&#xd2;" glyph-name="uniD2" horiz-adv-x="830" d="M795.648 507.392q0-81.408-27.392-151.040t-77.312-120.32-120.064-79.616-155.648-28.928-155.648 28.928-120.32 79.616-77.568 120.32-27.392 151.040 27.392 150.784 77.568 120.064 120.32 79.616 155.648 28.928 155.648-28.928 120.064-79.872 77.312-120.32 27.392-150.272zM638.464 507.392q0 58.368-15.36 104.704t-44.288 78.848-70.144 49.664-93.44 17.152-93.696-17.152-70.4-49.664-44.288-78.848-15.36-104.704q0-58.88 15.36-105.216t44.288-78.592 70.4-49.408 93.696-17.152 93.44 17.152 70.144 49.408 44.288 78.592 15.36 105.216zM335.872 1090.048q10.752 0 18.688-0.512t14.336-2.816 12.032-6.656 11.776-12.032l109.056-138.752h-102.4q-8.192 0-14.336 0.256t-11.264 1.536-9.984 4.096-10.496 7.424l-164.864 147.456h147.456z" />
<glyph unicode="&#xd3;" glyph-name="uniD3" horiz-adv-x="830" d="M795.648 507.392q0-81.408-27.392-151.040t-77.312-120.32-120.064-79.616-155.648-28.928-155.648 28.928-120.32 79.616-77.568 120.32-27.392 151.040 27.392 150.784 77.568 120.064 120.32 79.616 155.648 28.928 155.648-28.928 120.064-79.872 77.312-120.32 27.392-150.272zM638.464 507.392q0 58.368-15.36 104.704t-44.288 78.848-70.144 49.664-93.44 17.152-93.696-17.152-70.4-49.664-44.288-78.848-15.36-104.704q0-58.88 15.36-105.216t44.288-78.592 70.4-49.408 93.696-17.152 93.44 17.152 70.144 49.408 44.288 78.592 15.36 105.216zM640.512 1090.048l-165.376-146.432q-5.632-4.608-10.752-7.424t-10.496-4.352-11.776-2.048-14.080-0.512h-102.4l102.4 138.752q5.632 7.68 11.008 12.032t11.776 6.656 14.592 2.816 18.944 0.512h156.16z" />
<glyph unicode="&#xd4;" glyph-name="uniD4" horiz-adv-x="830" d="M795.648 507.392q0-81.408-27.392-151.040t-77.312-120.32-120.064-79.616-155.648-28.928-155.648 28.928-120.32 79.616-77.568 120.32-27.392 151.040 27.392 150.784 77.568 120.064 120.32 79.616 155.648 28.928 155.648-28.928 120.064-79.872 77.312-120.32 27.392-150.272zM638.464 507.392q0 58.368-15.36 104.704t-44.288 78.848-70.144 49.664-93.44 17.152-93.696-17.152-70.4-49.664-44.288-78.848-15.36-104.704q0-58.88 15.36-105.216t44.288-78.592 70.4-49.408 93.696-17.152 93.44 17.152 70.144 49.408 44.288 78.592 15.36 105.216zM606.72 929.28h-102.4q-8.192 0-20.224 3.072t-24.832 17.92l-34.816 48.128-8.192 11.776-8.192-11.776-34.816-48.128q-12.8-14.848-24.832-17.92t-20.224-3.072h-97.792l123.904 141.312h128z" />
<glyph unicode="&#xd5;" glyph-name="uniD5" horiz-adv-x="830" d="M795.648 507.392q0-81.408-27.392-151.040t-77.312-120.32-120.064-79.616-155.648-28.928-155.648 28.928-120.32 79.616-77.568 120.32-27.392 151.040 27.392 150.784 77.568 120.064 120.32 79.616 155.648 28.928 155.648-28.928 120.064-79.872 77.312-120.32 27.392-150.272zM638.464 507.392q0 58.368-15.36 104.704t-44.288 78.848-70.144 49.664-93.44 17.152-93.696-17.152-70.4-49.664-44.288-78.848-15.36-104.704q0-58.88 15.36-105.216t44.288-78.592 70.4-49.408 93.696-17.152 93.44 17.152 70.144 49.408 44.288 78.592 15.36 105.216zM479.744 1012.736q11.264 0 19.456 4.352t13.312 11.264 7.68 15.104 2.56 15.872h85.504q0-26.624-7.168-51.2t-21.248-43.52-34.816-30.464-47.872-11.52-46.848 7.936-35.328 17.408-28.672 17.408-26.88 7.936q-11.264 0-19.2-4.608t-12.8-11.776-7.424-15.36-2.56-15.872h-86.528q0 26.624 7.424 51.456t21.504 44.032 34.816 30.72 47.872 11.52 47.104-7.936 35.328-17.408 28.416-17.408 26.368-7.936z" />
<glyph unicode="&#xd6;" glyph-name="uniD6" horiz-adv-x="830" d="M795.648 507.392q0-81.408-27.392-151.040t-77.312-120.32-120.064-79.616-155.648-28.928-155.648 28.928-120.32 79.616-77.568 120.32-27.392 151.040 27.392 150.784 77.568 120.064 120.32 79.616 155.648 28.928 155.648-28.928 120.064-79.872 77.312-120.32 27.392-150.272zM638.464 507.392q0 58.368-15.36 104.704t-44.288 78.848-70.144 49.664-93.44 17.152-93.696-17.152-70.4-49.664-44.288-78.848-15.36-104.704q0-58.88 15.36-105.216t44.288-78.592 70.4-49.408 93.696-17.152 93.44 17.152 70.144 49.408 44.288 78.592 15.36 105.216zM375.296 989.184q0-14.848-5.888-27.904t-16.384-22.528-24.32-15.104-29.184-5.632q-14.336 0-27.136 5.632t-22.784 15.104-15.872 22.528-5.888 27.904 5.888 28.416 15.872 23.552 22.784 15.872 27.136 5.888q15.36 0 29.184-5.888t24.32-15.872 16.384-23.552 5.888-28.416zM604.672 989.184q0-14.848-5.888-27.904t-15.872-22.528-23.296-15.104-28.672-5.632-28.672 5.632-23.296 15.104-15.872 22.528-5.888 27.904 5.888 28.416 15.872 23.552 23.296 15.872 28.672 5.888 28.672-5.888 23.296-15.872 15.872-23.552 5.888-28.416z" />
<glyph unicode="&#xd7;" glyph-name="uniD7" horiz-adv-x="594" d="M534.528 642.048l-162.816-162.816 171.52-171.008-74.752-72.704-171.008 169.984-171.52-171.008-74.752 72.704 172.544 172.544-163.328 163.328 74.24 73.216 162.816-162.816 161.792 161.792z" />
<glyph unicode="&#xd8;" glyph-name="uniD8" horiz-adv-x="830" d="M795.648 507.392q0-81.408-27.392-151.040t-77.312-120.32-120.064-79.616-155.648-28.928q-50.176 0-94.72 9.984t-83.456 28.416l-34.304-47.616q-16.384-22.016-39.168-30.976t-45.312-8.96h-59.904l100.864 139.264q-59.392 51.712-92.16 125.952t-32.768 163.84q0 81.408 27.392 150.784t77.568 120.064 120.32 79.616 155.648 28.928q55.296 0 103.936-12.032t90.112-35.072l26.112 35.84q7.68 10.24 13.824 17.152t13.056 11.264 15.616 6.4 20.992 2.048h78.336l-92.672-128q53.248-51.712 82.176-122.368t28.928-154.624zM191.488 507.392q0-54.784 13.056-98.304t38.144-75.776l287.232 396.8q-24.576 13.312-52.992 20.48t-61.696 7.168q-52.224 0-93.696-17.152t-70.4-49.664-44.288-78.848-15.36-104.704zM638.464 507.392q0 48.128-10.496 87.552t-29.952 70.144l-281.088-389.12q44.032-18.944 98.304-18.944 52.224 0 93.44 17.152t70.144 49.408 44.288 78.592 15.36 105.216z" />
<glyph unicode="&#xd9;" glyph-name="uniD9" horiz-adv-x="763" d="M381.952 258.56q37.376 0 67.072 12.544t50.176 35.584 31.232 55.808 10.752 73.728v442.368h153.6v-442.368q0-67.584-21.76-124.16t-62.208-97.536-98.304-64-130.56-23.040-130.816 23.040-98.56 64-62.208 97.536-21.76 124.16v442.368h153.6v-442.368q0-40.96 10.752-73.728t31.232-55.808 50.176-35.584 67.584-12.544zM301.056 1090.048q10.752 0 18.688-0.512t14.336-2.816 12.032-6.656 11.776-12.032l109.056-138.752h-102.4q-8.192 0-14.336 0.256t-11.264 1.536-9.984 4.096-10.496 7.424l-164.864 147.456h147.456z" />
<glyph unicode="&#xda;" glyph-name="uniDA" horiz-adv-x="763" d="M381.952 258.56q37.376 0 67.072 12.544t50.176 35.584 31.232 55.808 10.752 73.728v442.368h153.6v-442.368q0-67.584-21.76-124.16t-62.208-97.536-98.304-64-130.56-23.040-130.816 23.040-98.56 64-62.208 97.536-21.76 124.16v442.368h153.6v-442.368q0-40.96 10.752-73.728t31.232-55.808 50.176-35.584 67.584-12.544zM605.696 1090.048l-165.376-146.432q-5.632-4.608-10.752-7.424t-10.496-4.352-11.776-2.048-14.080-0.512h-102.4l102.4 138.752q5.632 7.68 11.008 12.032t11.776 6.656 14.592 2.816 18.944 0.512h156.16z" />
<glyph unicode="&#xdb;" glyph-name="uniDB" horiz-adv-x="763" d="M381.952 258.56q37.376 0 67.072 12.544t50.176 35.584 31.232 55.808 10.752 73.728v442.368h153.6v-442.368q0-67.584-21.76-124.16t-62.208-97.536-98.304-64-130.56-23.040-130.816 23.040-98.56 64-62.208 97.536-21.76 124.16v442.368h153.6v-442.368q0-40.96 10.752-73.728t31.232-55.808 50.176-35.584 67.584-12.544zM572.416 929.28h-102.4q-8.192 0-20.224 3.072t-24.832 17.92l-34.816 48.128-8.192 11.776-8.192-11.776-34.816-48.128q-12.8-14.848-24.832-17.92t-20.224-3.072h-97.792l123.904 141.312h128z" />
<glyph unicode="&#xdc;" glyph-name="uniDC" horiz-adv-x="763" d="M381.952 258.56q37.376 0 67.072 12.544t50.176 35.584 31.232 55.808 10.752 73.728v442.368h153.6v-442.368q0-67.584-21.76-124.16t-62.208-97.536-98.304-64-130.56-23.040-130.816 23.040-98.56 64-62.208 97.536-21.76 124.16v442.368h153.6v-442.368q0-40.96 10.752-73.728t31.232-55.808 50.176-35.584 67.584-12.544zM340.992 989.184q0-14.848-5.888-27.904t-16.384-22.528-24.32-15.104-29.184-5.632q-14.336 0-27.136 5.632t-22.784 15.104-15.872 22.528-5.888 27.904 5.888 28.416 15.872 23.552 22.784 15.872 27.136 5.888q15.36 0 29.184-5.888t24.32-15.872 16.384-23.552 5.888-28.416zM570.368 989.184q0-14.848-5.888-27.904t-15.872-22.528-23.296-15.104-28.672-5.632-28.672 5.632-23.296 15.104-15.872 22.528-5.888 27.904 5.888 28.416 15.872 23.552 23.296 15.872 28.672 5.888 28.672-5.888 23.296-15.872 15.872-23.552 5.888-28.416z" />
<glyph unicode="&#xdd;" glyph-name="uniDD" horiz-adv-x="674" d="M413.696 420.864v-285.184h-153.6v285.184l-269.824 457.728h135.168q19.968 0 32-9.472t19.2-24.32l121.856-233.984q12.288-23.552 22.272-44.032t17.152-40.96q14.336 39.424 38.4 84.992l120.832 233.984q6.144 12.288 18.432 23.040t31.744 10.752h136.192zM562.176 1090.048l-165.376-146.432q-5.632-4.608-10.752-7.424t-10.496-4.352-11.776-2.048-14.080-0.512h-102.4l102.4 138.752q5.632 7.68 11.008 12.032t11.776 6.656 14.592 2.816 18.944 0.512h156.16z" />
<glyph unicode="&#xde;" glyph-name="uniDE" horiz-adv-x="638" d="M231.424 267.264v-131.584h-153.6v742.912h153.6v-123.904h97.28q76.288 0 131.84-17.92t91.392-49.92 52.992-76.032 17.152-95.744q0-54.784-17.92-100.352t-54.272-78.336-91.648-50.944-129.536-18.176h-97.28zM231.424 385.024h97.28q72.192 0 105.728 34.56t33.536 95.488q0 27.648-8.448 50.432t-25.6 38.912-43.264 24.832-61.952 8.704h-97.28v-252.928z" />
<glyph unicode="&#xdf;" glyph-name="uniDF" horiz-adv-x="627" d="M334.336 891.904q41.984 0 75.52-8.448t59.136-22.272 43.776-32.256 29.952-38.144 17.152-39.68 5.376-37.376q0-29.184-9.728-49.92t-24.064-36.096-31.232-26.88-31.232-21.76-24.064-21.248-9.728-24.832q0-15.872 12.288-27.904t30.976-23.808 40.192-25.6 40.192-33.536 30.976-47.36 12.288-66.56q0-44.544-16.64-78.592t-45.056-56.576-65.792-34.048-78.848-11.52q-23.040 0-46.336 4.864t-44.8 13.824-40.96 20.736-34.816 25.6l32.768 52.736q5.632 9.216 14.080 14.336t21.76 5.12q12.8 0 23.808-6.4t23.296-13.824 27.392-13.824 36.608-6.4q26.624 0 44.032 17.152t17.408 44.8q0 22.528-13.568 37.632t-33.792 27.648-44.032 24.832-44.032 29.184-33.792 40.448-13.568 59.392q0 30.208 10.496 51.456t26.112 37.376 33.792 29.184 33.792 26.112 26.112 28.16 10.496 35.584q0 16.896-5.632 31.232t-17.92 24.832-31.232 16.384-45.056 5.888q-66.048 0-97.536-41.216t-31.488-116.992v-497.664h-140.8v502.272q0 54.272 18.944 100.864t54.528 80.64 86.784 53.248 115.712 19.2z" />
<glyph unicode="&#xe0;" glyph-name="uniE0" horiz-adv-x="524" d="M407.552 135.68q-19.968 0-30.464 5.632t-17.152 23.552l-11.264 33.28q-19.968-17.408-38.656-30.464t-38.912-22.016-43.008-13.568-50.432-4.608q-34.816 0-63.488 9.216t-49.408 27.392-32 45.312-11.264 62.464q0 29.184 14.848 58.112t50.944 52.736 96.256 39.68 150.784 17.92v27.136q0 49.664-20.992 72.96t-60.416 23.296q-29.184 0-48.64-6.912t-34.048-14.848-27.392-14.848-29.696-6.912q-14.848 0-24.832 7.424t-16.64 17.664l-25.088 45.056q46.592 41.984 102.912 62.72t121.856 20.736q47.104 0 84.224-15.36t62.976-42.752 39.68-65.28 13.824-82.944v-331.776h-64.512zM221.696 222.72q34.816 0 60.928 12.544t51.712 38.656v81.92q-51.712-2.048-86.016-8.704t-54.528-16.64-28.672-23.040-8.448-28.416q0-30.72 17.152-43.52t47.872-12.8zM215.552 886.784q22.016 0 33.024-7.168t19.2-21.504l71.168-124.928h-79.872q-15.872 0-25.856 4.352t-20.224 15.104l-129.536 134.144h132.096z" />
<glyph unicode="&#xe1;" glyph-name="uniE1" horiz-adv-x="524" d="M407.552 135.68q-19.968 0-30.464 5.632t-17.152 23.552l-11.264 33.28q-19.968-17.408-38.656-30.464t-38.912-22.016-43.008-13.568-50.432-4.608q-34.816 0-63.488 9.216t-49.408 27.392-32 45.312-11.264 62.464q0 29.184 14.848 58.112t50.944 52.736 96.256 39.68 150.784 17.92v27.136q0 49.664-20.992 72.96t-60.416 23.296q-29.184 0-48.64-6.912t-34.048-14.848-27.392-14.848-29.696-6.912q-14.848 0-24.832 7.424t-16.64 17.664l-25.088 45.056q46.592 41.984 102.912 62.72t121.856 20.736q47.104 0 84.224-15.36t62.976-42.752 39.68-65.28 13.824-82.944v-331.776h-64.512zM221.696 222.72q34.816 0 60.928 12.544t51.712 38.656v81.92q-51.712-2.048-86.016-8.704t-54.528-16.64-28.672-23.040-8.448-28.416q0-30.72 17.152-43.52t47.872-12.8zM447.488 886.784l-129.536-134.144q-10.24-10.752-20.224-15.104t-25.856-4.352h-84.992l71.68 124.928q7.68 14.336 18.688 21.504t33.536 7.168h136.704z" />
<glyph unicode="&#xe2;" glyph-name="uniE2" horiz-adv-x="524" d="M407.552 135.68q-19.968 0-30.464 5.632t-17.152 23.552l-11.264 33.28q-19.968-17.408-38.656-30.464t-38.912-22.016-43.008-13.568-50.432-4.608q-34.816 0-63.488 9.216t-49.408 27.392-32 45.312-11.264 62.464q0 29.184 14.848 58.112t50.944 52.736 96.256 39.68 150.784 17.92v27.136q0 49.664-20.992 72.96t-60.416 23.296q-29.184 0-48.64-6.912t-34.048-14.848-27.392-14.848-29.696-6.912q-14.848 0-24.832 7.424t-16.64 17.664l-25.088 45.056q46.592 41.984 102.912 62.72t121.856 20.736q47.104 0 84.224-15.36t62.976-42.752 39.68-65.28 13.824-82.944v-331.776h-64.512zM221.696 222.72q34.816 0 60.928 12.544t51.712 38.656v81.92q-51.712-2.048-86.016-8.704t-54.528-16.64-28.672-23.040-8.448-28.416q0-30.72 17.152-43.52t47.872-12.8zM443.392 733.696h-94.208q-8.192 0-15.872 2.816t-15.872 10.496l-45.056 48.64q-3.072 2.56-5.888 5.888t-5.376 6.912q-3.072-4.096-6.144-7.168l-5.632-5.632-46.080-48.64q-14.336-13.312-31.744-13.312h-97.792l118.784 144.896h132.096z" />
<glyph unicode="&#xe3;" glyph-name="uniE3" horiz-adv-x="524" d="M407.552 135.68q-19.968 0-30.464 5.632t-17.152 23.552l-11.264 33.28q-19.968-17.408-38.656-30.464t-38.912-22.016-43.008-13.568-50.432-4.608q-34.816 0-63.488 9.216t-49.408 27.392-32 45.312-11.264 62.464q0 29.184 14.848 58.112t50.944 52.736 96.256 39.68 150.784 17.92v27.136q0 49.664-20.992 72.96t-60.416 23.296q-29.184 0-48.64-6.912t-34.048-14.848-27.392-14.848-29.696-6.912q-14.848 0-24.832 7.424t-16.64 17.664l-25.088 45.056q46.592 41.984 102.912 62.72t121.856 20.736q47.104 0 84.224-15.36t62.976-42.752 39.68-65.28 13.824-82.944v-331.776h-64.512zM221.696 222.72q34.816 0 60.928 12.544t51.712 38.656v81.92q-51.712-2.048-86.016-8.704t-54.528-16.64-28.672-23.040-8.448-28.416q0-30.72 17.152-43.52t47.872-12.8zM312.832 838.144q13.824 0 22.016 7.424t8.192 28.928h86.016q0-30.208-8.448-54.784t-23.296-41.728-35.328-26.624-44.032-9.472q-18.432 0-34.56 6.4t-30.208 13.824-25.856 13.824-20.992 6.4q-13.824 0-21.76-7.936t-7.936-29.44h-87.040q0 30.208 8.448 54.784t23.552 41.984 35.328 26.88 43.776 9.472q18.944 0 35.328-6.144t30.208-13.824 25.344-13.824 21.248-6.144z" />
<glyph unicode="&#xe4;" glyph-name="uniE4" horiz-adv-x="524" d="M407.552 135.68q-19.968 0-30.464 5.632t-17.152 23.552l-11.264 33.28q-19.968-17.408-38.656-30.464t-38.912-22.016-43.008-13.568-50.432-4.608q-34.816 0-63.488 9.216t-49.408 27.392-32 45.312-11.264 62.464q0 29.184 14.848 58.112t50.944 52.736 96.256 39.68 150.784 17.92v27.136q0 49.664-20.992 72.96t-60.416 23.296q-29.184 0-48.64-6.912t-34.048-14.848-27.392-14.848-29.696-6.912q-14.848 0-24.832 7.424t-16.64 17.664l-25.088 45.056q46.592 41.984 102.912 62.72t121.856 20.736q47.104 0 84.224-15.36t62.976-42.752 39.68-65.28 13.824-82.944v-331.776h-64.512zM221.696 222.72q34.816 0 60.928 12.544t51.712 38.656v81.92q-51.712-2.048-86.016-8.704t-54.528-16.64-28.672-23.040-8.448-28.416q0-30.72 17.152-43.52t47.872-12.8zM228.352 798.208q0-15.36-6.144-28.672t-16.64-23.296-24.576-15.616-29.952-5.632q-14.848 0-28.416 5.632t-23.808 15.616-16.384 23.296-6.144 28.672 6.144 29.184 16.384 24.32 23.808 16.384 28.416 5.888q15.872 0 29.952-5.888t24.576-16.384 16.64-24.32 6.144-29.184zM440.832 798.208q0-15.36-6.144-28.672t-16.384-23.296-24.32-15.616-29.952-5.632q-15.36 0-29.184 5.632t-24.064 15.616-16.128 23.296-5.888 28.672 5.888 29.184 16.128 24.32 24.064 16.384 29.184 5.888q15.872 0 29.952-5.888t24.32-16.384 16.384-24.32 6.144-29.184z" />
<glyph unicode="&#xe5;" glyph-name="uniE5" horiz-adv-x="524" d="M407.552 135.68q-19.968 0-30.464 5.632t-17.152 23.552l-11.264 33.28q-19.968-17.408-38.656-30.464t-38.912-22.016-43.008-13.568-50.432-4.608q-34.816 0-63.488 9.216t-49.408 27.392-32 45.312-11.264 62.464q0 29.184 14.848 58.112t50.944 52.736 96.256 39.68 150.784 17.92v27.136q0 49.664-20.992 72.96t-60.416 23.296q-29.184 0-48.64-6.912t-34.048-14.848-27.392-14.848-29.696-6.912q-14.848 0-24.832 7.424t-16.64 17.664l-25.088 45.056q46.592 41.984 102.912 62.72t121.856 20.736q47.104 0 84.224-15.36t62.976-42.752 39.68-65.28 13.824-82.944v-331.776h-64.512zM221.696 222.72q34.816 0 60.928 12.544t51.712 38.656v81.92q-51.712-2.048-86.016-8.704t-54.528-16.64-28.672-23.040-8.448-28.416q0-30.72 17.152-43.52t47.872-12.8zM140.8 816.128q0 24.576 9.728 44.8t25.856 34.304 37.376 22.016 44.8 7.936q24.064 0 46.080-7.936t38.656-22.016 26.368-34.304 9.728-44.8q0-24.064-9.728-43.52t-26.368-33.28-38.656-21.504-46.080-7.68q-23.552 0-44.8 7.68t-37.376 21.504-25.856 33.28-9.728 43.52zM216.576 816.128q0-19.456 11.264-31.488t32.768-12.032q19.456 0 31.232 12.032t11.776 31.488q0 20.48-11.776 32.512t-31.232 12.032q-21.504 0-32.768-12.032t-11.264-32.512z" />
<glyph unicode="&#xe6;" glyph-name="uniE6" horiz-adv-x="831" d="M586.24 671.744q46.080 0 85.248-17.408t67.84-50.176 45.056-79.104 16.384-104.192q0-15.872-1.28-26.112t-4.864-16.384-9.472-8.448-15.616-2.304h-300.032q8.192-68.608 41.472-100.608t85.504-32q34.304 0 55.552 6.4t35.072 14.080 23.296 14.080 21.248 6.4q19.456 0 28.672-12.288l37.888-47.616q-22.528-26.112-49.152-43.264t-54.784-27.136-56.576-13.824-55.040-3.84q-27.136 0-52.992 5.888t-49.408 17.92-44.288 30.72-36.608 44.288q-15.872-26.112-38.4-44.8t-49.92-30.976-57.856-17.92-62.72-5.632q-39.424 0-70.4 9.984t-52.736 29.184-33.28 47.104-11.52 63.744q0 19.456 6.4 39.68t20.992 38.912 38.4 35.584 58.624 29.952 81.408 20.992 107.008 9.472v15.36q0 49.664-20.992 75.008t-60.416 25.344q-29.184 0-48.64-7.424t-34.048-16.384-27.392-16.384-29.696-7.424q-14.848 0-24.832 7.424t-16.64 17.664l-25.088 45.056q46.592 41.984 97.28 62.72t112.128 20.736q58.88 0 96.768-21.504t58.88-58.88q29.184 36.352 72.704 57.344t100.864 20.992zM580.096 572.416q-49.664 0-76.544-31.488t-34.048-89.344h205.824q0 22.528-5.376 44.288t-16.896 38.656-29.696 27.392-43.264 10.496zM335.36 367.616q-51.712-2.56-86.016-9.984t-54.528-18.432-28.672-25.088-8.448-29.44q0-31.744 17.408-46.848t49.664-15.104q23.552 0 43.776 7.168t35.072 22.528 23.296 39.68 8.448 59.136v16.384z" />
<glyph unicode="&#xe7;" glyph-name="uniE7" horiz-adv-x="497" d="M214.016 18.944q7.168 0 15.36-2.816t21.504-2.816q15.36 0 22.528 5.632t7.168 13.312q0 12.8-17.152 18.688t-55.040 11.52l23.040 68.608q-41.984 6.656-78.592 27.648t-63.744 55.296-42.752 81.152-15.616 105.216q0 57.856 16.896 107.52t49.664 86.016 81.152 57.088 111.872 20.736q60.416 0 105.984-19.456t81.92-56.32l-36.864-50.176q-6.144-8.192-12.288-12.544t-17.408-4.352q-10.24 0-19.712 5.888t-21.76 12.8-29.184 12.8-41.984 5.888q-31.744 0-55.040-11.52t-38.656-33.024-22.784-52.224-7.424-69.12q0-80.896 32.512-123.904t88.832-43.008q19.456 0 33.536 3.328t24.576 8.448 18.176 11.264 14.592 11.264 13.824 8.448 15.616 3.328q16.384 0 25.6-12.288l40.448-51.2q-18.432-21.504-38.912-36.864t-42.496-25.344-44.544-15.872-45.568-7.936l-6.144-23.040q24.576-5.632 40.96-13.568t26.368-17.664 14.336-21.504 4.352-24.576q0-17.92-9.472-32t-26.624-23.808-41.216-15.104-53.248-5.376q-20.992 0-39.168 2.304t-36.608 7.424l13.312 43.52q3.072 12.288 15.872 12.288z" />
<glyph unicode="&#xe8;" glyph-name="uniE8" horiz-adv-x="549" d="M287.232 671.744q50.688 0 93.44-16.128t73.728-46.848 48.128-75.52 17.152-102.144q0-15.872-1.536-26.112t-5.12-16.384-9.728-8.448-15.872-2.304h-316.928q6.656-74.24 42.24-108.544t93.44-34.304q29.184 0 50.432 6.912t37.376 15.36 29.184 15.36 25.856 6.912q16.384 0 25.6-12.288l40.96-51.2q-22.528-26.112-49.664-43.264t-56.32-27.136-58.88-13.824-57.344-3.84q-55.296 0-103.168 18.176t-83.456 53.76-56.064 88.32-20.48 122.368q0 53.76 17.664 101.376t50.944 82.944 80.896 56.064 107.52 20.736zM289.792 572.416q-50.688 0-79.36-28.928t-37.376-81.664h220.16q0 22.016-5.888 41.984t-18.688 35.328-32.256 24.32-46.592 8.96zM247.296 886.784q22.016 0 33.024-7.168t19.2-21.504l71.168-124.928h-79.872q-15.872 0-25.856 4.352t-20.224 15.104l-129.536 134.144h132.096z" />
<glyph unicode="&#xe9;" glyph-name="uniE9" horiz-adv-x="549" d="M287.232 671.744q50.688 0 93.44-16.128t73.728-46.848 48.128-75.52 17.152-102.144q0-15.872-1.536-26.112t-5.12-16.384-9.728-8.448-15.872-2.304h-316.928q6.656-74.24 42.24-108.544t93.44-34.304q29.184 0 50.432 6.912t37.376 15.36 29.184 15.36 25.856 6.912q16.384 0 25.6-12.288l40.96-51.2q-22.528-26.112-49.664-43.264t-56.32-27.136-58.88-13.824-57.344-3.84q-55.296 0-103.168 18.176t-83.456 53.76-56.064 88.32-20.48 122.368q0 53.76 17.664 101.376t50.944 82.944 80.896 56.064 107.52 20.736zM289.792 572.416q-50.688 0-79.36-28.928t-37.376-81.664h220.16q0 22.016-5.888 41.984t-18.688 35.328-32.256 24.32-46.592 8.96zM479.232 886.784l-129.536-134.144q-10.24-10.752-20.224-15.104t-25.856-4.352h-84.992l71.68 124.928q7.68 14.336 18.688 21.504t33.536 7.168h136.704z" />
<glyph unicode="&#xea;" glyph-name="uniEA" horiz-adv-x="549" d="M287.232 671.744q50.688 0 93.44-16.128t73.728-46.848 48.128-75.52 17.152-102.144q0-15.872-1.536-26.112t-5.12-16.384-9.728-8.448-15.872-2.304h-316.928q6.656-74.24 42.24-108.544t93.44-34.304q29.184 0 50.432 6.912t37.376 15.36 29.184 15.36 25.856 6.912q16.384 0 25.6-12.288l40.96-51.2q-22.528-26.112-49.664-43.264t-56.32-27.136-58.88-13.824-57.344-3.84q-55.296 0-103.168 18.176t-83.456 53.76-56.064 88.32-20.48 122.368q0 53.76 17.664 101.376t50.944 82.944 80.896 56.064 107.52 20.736zM289.792 572.416q-50.688 0-79.36-28.928t-37.376-81.664h220.16q0 22.016-5.888 41.984t-18.688 35.328-32.256 24.32-46.592 8.96zM475.136 733.696h-94.208q-8.192 0-15.872 2.816t-15.872 10.496l-45.056 48.64q-3.072 2.56-5.888 5.888t-5.376 6.912q-3.072-4.096-6.144-7.168l-5.632-5.632-46.080-48.64q-14.336-13.312-31.744-13.312h-97.792l118.784 144.896h132.096z" />
<glyph unicode="&#xeb;" glyph-name="uniEB" horiz-adv-x="549" d="M287.232 671.744q50.688 0 93.44-16.128t73.728-46.848 48.128-75.52 17.152-102.144q0-15.872-1.536-26.112t-5.12-16.384-9.728-8.448-15.872-2.304h-316.928q6.656-74.24 42.24-108.544t93.44-34.304q29.184 0 50.432 6.912t37.376 15.36 29.184 15.36 25.856 6.912q16.384 0 25.6-12.288l40.96-51.2q-22.528-26.112-49.664-43.264t-56.32-27.136-58.88-13.824-57.344-3.84q-55.296 0-103.168 18.176t-83.456 53.76-56.064 88.32-20.48 122.368q0 53.76 17.664 101.376t50.944 82.944 80.896 56.064 107.52 20.736zM289.792 572.416q-50.688 0-79.36-28.928t-37.376-81.664h220.16q0 22.016-5.888 41.984t-18.688 35.328-32.256 24.32-46.592 8.96zM260.096 798.208q0-15.36-6.144-28.672t-16.64-23.296-24.576-15.616-29.952-5.632q-14.848 0-28.416 5.632t-23.808 15.616-16.384 23.296-6.144 28.672 6.144 29.184 16.384 24.32 23.808 16.384 28.416 5.888q15.872 0 29.952-5.888t24.576-16.384 16.64-24.32 6.144-29.184zM472.576 798.208q0-15.36-6.144-28.672t-16.384-23.296-24.32-15.616-29.952-5.632q-15.36 0-29.184 5.632t-24.064 15.616-16.128 23.296-5.888 28.672 5.888 29.184 16.128 24.32 24.064 16.384 29.184 5.888q15.872 0 29.952-5.888t24.32-16.384 16.384-24.32 6.144-29.184z" />
<glyph unicode="&#xec;" glyph-name="uniEC" horiz-adv-x="266" d="M203.776 663.552v-527.872h-141.312v527.872h141.312zM94.208 886.784q22.016 0 33.024-7.168t19.2-21.504l71.168-124.928h-79.872q-15.872 0-25.856 4.352t-20.224 15.104l-129.536 134.144h132.096z" />
<glyph unicode="&#xed;" glyph-name="uniED" horiz-adv-x="267" d="M204.288 663.552v-527.872h-141.312v527.872h141.312zM326.656 886.784l-129.536-134.144q-10.24-10.752-20.224-15.104t-25.856-4.352h-84.992l71.68 124.928q7.68 14.336 18.688 21.504t33.536 7.168h136.704z" />
<glyph unicode="&#xee;" glyph-name="uniEE" horiz-adv-x="266" d="M203.776 663.552v-527.872h-141.312v527.872h141.312zM322.048 733.696h-94.208q-8.192 0-15.872 2.816t-15.872 10.496l-45.056 48.64q-3.072 2.56-5.888 5.888t-5.376 6.912q-3.072-4.096-6.144-7.168l-5.632-5.632-46.080-48.64q-14.336-13.312-31.744-13.312h-97.792l118.784 144.896h132.096z" />
<glyph unicode="&#xef;" glyph-name="uniEF" horiz-adv-x="266" d="M203.776 663.552v-527.872h-141.312v527.872h141.312zM122.88 798.208q0-15.36-6.144-28.672t-16.64-23.296-24.576-15.616-29.952-5.632q-14.848 0-28.16 5.632t-23.552 15.616-16.384 23.296-6.144 28.672 6.144 29.184 16.384 24.32 23.552 16.384 28.16 5.888q15.872 0 29.952-5.888t24.576-16.384 16.64-24.32 6.144-29.184zM303.104 798.208q0-15.36-5.888-28.672t-16.384-23.296-24.32-15.616-29.696-5.632q-15.36 0-29.184 5.632t-24.064 15.616-16.128 23.296-5.888 28.672 5.888 29.184 16.128 24.32 24.064 16.384 29.184 5.888q15.872 0 29.696-5.888t24.32-16.384 16.384-24.32 5.888-29.184z" />
</font>
</defs>
</svg>
